<svg viewBox="0 0 928 444" fill="none" xmlns="http://www.w3.org/2000/svg">
<g clip-path="url(#clip0_2166_31659)">
<g filter="url(#filter0_d_2166_31659)">
<path d="M8 0H436C436 0 207 99 412 283.5C617 468 841.5 441.5 841.5 441.5L8 432V0Z" fill="url(#paint0_linear_2166_31659)"/>
</g>
<mask id="mask0_2166_31659" style="mask-type:alpha" maskUnits="userSpaceOnUse" x="16" y="0" width="838" height="447">
<path d="M16 0H433C433 0 179.5 123.603 447.257 310.574C715.015 497.546 854 436.76 854 436.76L16 429.424L16 0Z" fill="url(#paint1_linear_2166_31659)"/>
</mask>
<g mask="url(#mask0_2166_31659)">
<mask id="mask1_2166_31659" style="mask-type:alpha" maskUnits="userSpaceOnUse" x="69" y="-55" width="95" height="95">
<rect x="69" y="-55" width="95" height="95" fill="#D9D9D9"/>
</mask>
<g mask="url(#mask1_2166_31659)">
<circle cx="69" cy="40" r="94" stroke="#A69E3F" stroke-width="2"/>
<circle cx="164" cy="40" r="94" stroke="#A69E3F" stroke-width="2"/>
<circle cx="69" cy="-55" r="94" stroke="#A69E3F" stroke-width="2"/>
<circle cx="164" cy="-55" r="94" stroke="#A69E3F" stroke-width="2"/>
</g>
<mask id="mask2_2166_31659" style="mask-type:alpha" maskUnits="userSpaceOnUse" x="69" y="40" width="95" height="95">
<rect x="69" y="40" width="95" height="95" fill="#D9D9D9"/>
</mask>
<g mask="url(#mask2_2166_31659)">
<circle cx="69" cy="135" r="94" stroke="#A69E3F" stroke-width="2"/>
<circle cx="164" cy="135" r="94" stroke="#A69E3F" stroke-width="2"/>
<circle cx="69" cy="40" r="94" stroke="#A69E3F" stroke-width="2"/>
<circle cx="164" cy="40" r="94" stroke="#A69E3F" stroke-width="2"/>
</g>
<mask id="mask3_2166_31659" style="mask-type:alpha" maskUnits="userSpaceOnUse" x="164" y="-55" width="95" height="95">
<rect x="164" y="-55" width="95" height="95" fill="#D9D9D9"/>
</mask>
<g mask="url(#mask3_2166_31659)">
<circle cx="164" cy="40" r="94" stroke="#A69E3F" stroke-width="2"/>
<circle cx="259" cy="40" r="94" stroke="#A69E3F" stroke-width="2"/>
<circle cx="164" cy="-55" r="94" stroke="#A69E3F" stroke-width="2"/>
<circle cx="259" cy="-55" r="94" stroke="#A69E3F" stroke-width="2"/>
</g>
<mask id="mask4_2166_31659" style="mask-type:alpha" maskUnits="userSpaceOnUse" x="164" y="40" width="95" height="95">
<rect x="164" y="40" width="95" height="95" fill="#D9D9D9"/>
</mask>
<g mask="url(#mask4_2166_31659)">
<circle cx="164" cy="135" r="94" stroke="#A69E3F" stroke-width="2"/>
<circle cx="259" cy="135" r="94" stroke="#A69E3F" stroke-width="2"/>
<circle cx="164" cy="40" r="94" stroke="#A69E3F" stroke-width="2"/>
<circle cx="259" cy="40" r="94" stroke="#A69E3F" stroke-width="2"/>
</g>
<mask id="mask5_2166_31659" style="mask-type:alpha" maskUnits="userSpaceOnUse" x="164" y="135" width="95" height="95">
<rect x="164" y="135" width="95" height="95" fill="#D9D9D9"/>
</mask>
<g mask="url(#mask5_2166_31659)">
<circle cx="164" cy="230" r="94" stroke="#A69E3F" stroke-width="2"/>
<circle cx="259" cy="230" r="94" stroke="#A69E3F" stroke-width="2"/>
<circle cx="164" cy="135" r="94" stroke="#A69E3F" stroke-width="2"/>
<circle cx="259" cy="135" r="94" stroke="#A69E3F" stroke-width="2"/>
</g>
<mask id="mask6_2166_31659" style="mask-type:alpha" maskUnits="userSpaceOnUse" x="259" y="-55" width="95" height="95">
<rect x="259" y="-55" width="95" height="95" fill="#D9D9D9"/>
</mask>
<g mask="url(#mask6_2166_31659)">
<circle cx="259" cy="40" r="94" stroke="#A69E3F" stroke-width="2"/>
<circle cx="354" cy="40" r="94" stroke="#A69E3F" stroke-width="2"/>
<circle cx="259" cy="-55" r="94" stroke="#A69E3F" stroke-width="2"/>
<circle cx="354" cy="-55" r="94" stroke="#A69E3F" stroke-width="2"/>
</g>
<mask id="mask7_2166_31659" style="mask-type:alpha" maskUnits="userSpaceOnUse" x="259" y="40" width="95" height="95">
<rect x="259" y="40" width="95" height="95" fill="#D9D9D9"/>
</mask>
<g mask="url(#mask7_2166_31659)">
<circle cx="259" cy="135" r="94" stroke="#A69E3F" stroke-width="2"/>
<circle cx="354" cy="135" r="94" stroke="#A69E3F" stroke-width="2"/>
<circle cx="259" cy="40" r="94" stroke="#A69E3F" stroke-width="2"/>
<circle cx="354" cy="40" r="94" stroke="#A69E3F" stroke-width="2"/>
</g>
<mask id="mask8_2166_31659" style="mask-type:alpha" maskUnits="userSpaceOnUse" x="259" y="135" width="95" height="95">
<rect x="259" y="135" width="95" height="95" fill="#D9D9D9"/>
</mask>
<g mask="url(#mask8_2166_31659)">
<circle cx="259" cy="230" r="94" stroke="#A69E3F" stroke-width="2"/>
<circle cx="354" cy="230" r="94" stroke="#A69E3F" stroke-width="2"/>
<circle cx="259" cy="135" r="94" stroke="#A69E3F" stroke-width="2"/>
<circle cx="354" cy="135" r="94" stroke="#A69E3F" stroke-width="2"/>
</g>
<mask id="mask9_2166_31659" style="mask-type:alpha" maskUnits="userSpaceOnUse" x="259" y="230" width="95" height="95">
<rect x="259" y="230" width="95" height="95" fill="#D9D9D9"/>
</mask>
<g mask="url(#mask9_2166_31659)">
<circle cx="259" cy="325" r="94" stroke="#A69E3F" stroke-width="2"/>
<circle cx="354" cy="325" r="94" stroke="#A69E3F" stroke-width="2"/>
<circle cx="259" cy="230" r="94" stroke="#A69E3F" stroke-width="2"/>
<circle cx="354" cy="230" r="94" stroke="#A69E3F" stroke-width="2"/>
</g>
<mask id="mask10_2166_31659" style="mask-type:alpha" maskUnits="userSpaceOnUse" x="354" y="-55" width="95" height="95">
<rect x="354" y="-55" width="95" height="95" fill="#D9D9D9"/>
</mask>
<g mask="url(#mask10_2166_31659)">
<circle cx="354" cy="40" r="94" stroke="#A69E3F" stroke-width="2"/>
<circle cx="449" cy="40" r="94" stroke="#A69E3F" stroke-width="2"/>
<circle cx="354" cy="-55" r="94" stroke="#A69E3F" stroke-width="2"/>
<circle cx="449" cy="-55" r="94" stroke="#A69E3F" stroke-width="2"/>
</g>
<mask id="mask11_2166_31659" style="mask-type:alpha" maskUnits="userSpaceOnUse" x="354" y="40" width="95" height="95">
<rect x="354" y="40" width="95" height="95" fill="#D9D9D9"/>
</mask>
<g mask="url(#mask11_2166_31659)">
<circle cx="354" cy="135" r="94" stroke="#A69E3F" stroke-width="2"/>
<circle cx="449" cy="135" r="94" stroke="#A69E3F" stroke-width="2"/>
<circle cx="354" cy="40" r="94" stroke="#A69E3F" stroke-width="2"/>
<circle cx="449" cy="40" r="94" stroke="#A69E3F" stroke-width="2"/>
</g>
<mask id="mask12_2166_31659" style="mask-type:alpha" maskUnits="userSpaceOnUse" x="354" y="230" width="95" height="95">
<rect x="354" y="230" width="95" height="95" fill="#D9D9D9"/>
</mask>
<g mask="url(#mask12_2166_31659)">
<circle cx="354" cy="325" r="94" stroke="#A69E3F" stroke-width="2"/>
<circle cx="449" cy="325" r="94" stroke="#A69E3F" stroke-width="2"/>
<circle cx="354" cy="230" r="94" stroke="#A69E3F" stroke-width="2"/>
<circle cx="449" cy="230" r="94" stroke="#A69E3F" stroke-width="2"/>
</g>
</g>
<g filter="url(#filter1_d_2166_31659)">
<path d="M103 0C242.926 222.603 494.934 377.366 928 444H0V0H103Z" fill="url(#paint2_linear_2166_31659)"/>
</g>
</g>
<defs>
<filter id="filter0_d_2166_31659" x="-25.4" y="-29.4" width="900.3" height="509.619" filterUnits="userSpaceOnUse" color-interpolation-filters="sRGB">
<feFlood flood-opacity="0" result="BackgroundImageFix"/>
<feColorMatrix in="SourceAlpha" type="matrix" values="0 0 0 0 0 0 0 0 0 0 0 0 0 0 0 0 0 0 127 0" result="hardAlpha"/>
<feOffset dy="4"/>
<feGaussianBlur stdDeviation="16.7"/>
<feComposite in2="hardAlpha" operator="out"/>
<feColorMatrix type="matrix" values="0 0 0 0 0 0 0 0 0 0 0 0 0 0 0 0 0 0 0.4 0"/>
<feBlend mode="normal" in2="BackgroundImageFix" result="effect1_dropShadow_2166_31659"/>
<feBlend mode="normal" in="SourceGraphic" in2="effect1_dropShadow_2166_31659" result="shape"/>
</filter>
<filter id="filter1_d_2166_31659" x="-3.4" y="-7.4" width="950.8" height="466.8" filterUnits="userSpaceOnUse" color-interpolation-filters="sRGB">
<feFlood flood-opacity="0" result="BackgroundImageFix"/>
<feColorMatrix in="SourceAlpha" type="matrix" values="0 0 0 0 0 0 0 0 0 0 0 0 0 0 0 0 0 0 127 0" result="hardAlpha"/>
<feOffset dx="8" dy="4"/>
<feGaussianBlur stdDeviation="5.7"/>
<feComposite in2="hardAlpha" operator="out"/>
<feColorMatrix type="matrix" values="0 0 0 0 0 0 0 0 0 0 0 0 0 0 0 0 0 0 0.25 0"/>
<feBlend mode="normal" in2="BackgroundImageFix" result="effect1_dropShadow_2166_31659"/>
<feBlend mode="normal" in="SourceGraphic" in2="effect1_dropShadow_2166_31659" result="shape"/>
</filter>
<linearGradient id="paint0_linear_2166_31659" x1="8" y1="0" x2="708.466" y2="598.515" gradientUnits="userSpaceOnUse">
<stop stop-color="#BFB55C"/>
<stop offset="1" stop-color="#A69E3F"/>
</linearGradient>
<linearGradient id="paint1_linear_2166_31659" x1="435" y1="0" x2="435" y2="446.197" gradientUnits="userSpaceOnUse">
<stop stop-color="#BFB55C"/>
<stop offset="1" stop-color="#A69E3F"/>
</linearGradient>
<linearGradient id="paint2_linear_2166_31659" x1="464" y1="0" x2="464" y2="444" gradientUnits="userSpaceOnUse">
<stop stop-color="#456990"/>
<stop offset="1" stop-color="#293F56"/>
</linearGradient>
<clipPath id="clip0_2166_31659">
<rect width="928" height="444" fill="white"/>
</clipPath>
</defs>
</svg>
