<svg width="253" height="100%" viewBox="0 0 253 100%" fill="none" xmlns="http://www.w3.org/2000/svg">
<defs>
			<linearGradient id="dark_primary_gradient" x1="0" x2="0" y1="1" y2="0">
				<stop class="dark_primary_gradient__stop-1" offset="0%" />
				<stop class="dark_primary_gradient__stop-2" offset="100%" />
			</linearGradient>
		</defs>
<mask id="mask0_2127_25389" style="mask-type:alpha" maskUnits="userSpaceOnUse" x="0" y="0" width="253" height="772">
<rect width="253" height="772" fill="#D9D9D9"/>
</mask>
<g mask="url(#mask0_2127_25389)">
<g filter="url(#filter0_d_2127_25389)">
<path d="M-2.49996 -2.00012L149.74 -2.00012C149.74 -2.00012 63.717 268.554 120.287 498.14C161.484 665.334 240.018 770.767 240.018 770.767L-2.49993 770.767L-2.49996 -2.00012Z" fill="url(#paint0_linear_2127_25389)"/>
</g>
<mask id="mask1_2127_25389" style="mask-type:alpha" maskUnits="userSpaceOnUse" x="-3" y="-2" width="244" height="773">
<path d="M-2.49996 -1.99987L149.74 -1.99988C149.74 -1.99988 63.717 268.555 120.287 498.141C161.484 665.334 240.018 770.767 240.018 770.767L-2.49993 770.767L-2.49996 -1.99987Z" fill="url(#paint1_linear_2127_25389)" fill-opacity="0.5"/>
</mask>
<g mask="url(#mask1_2127_25389)">
<mask id="mask2_2127_25389" style="mask-type:alpha" maskUnits="userSpaceOnUse" x="-44" y="210" width="88" height="81">
<rect x="-43.5459" y="210.2" width="86.9393" height="80.6" fill="#D9D9D9"/>
</mask>
<g mask="url(#mask2_2127_25389)">
<path d="M-43.5454 211.049C4.06272 211.049 42.5452 246.814 42.5454 290.8C42.5454 334.786 4.06286 370.552 -43.5454 370.552C-91.1537 370.552 -129.636 334.786 -129.636 290.8C-129.636 246.814 -91.1536 211.049 -43.5454 211.049Z" stroke="#A69E3F" stroke-width="1.69684"/>
<path d="M43.3936 211.049C91.0017 211.049 129.484 246.814 129.484 290.8C129.484 334.786 91.0018 370.552 43.3936 370.552C-4.21477 370.552 -42.6973 334.786 -42.6973 290.8C-42.697 246.814 -4.21463 211.049 43.3936 211.049Z" stroke="#A69E3F" stroke-width="1.69684"/>
<path d="M-43.5454 130.449C4.06272 130.449 42.5452 166.214 42.5454 210.2C42.5454 254.186 4.06286 289.952 -43.5454 289.952C-91.1537 289.952 -129.636 254.186 -129.636 210.2C-129.636 166.214 -91.1536 130.449 -43.5454 130.449Z" stroke="#A69E3F" stroke-width="1.69684"/>
<path d="M43.3936 130.449C91.0017 130.449 129.484 166.214 129.484 210.2C129.484 254.186 91.0018 289.952 43.3936 289.952C-4.21477 289.952 -42.6973 254.186 -42.6973 210.2C-42.697 166.214 -4.21463 130.449 43.3936 130.449Z" stroke="#A69E3F" stroke-width="1.69684"/>
</g>
<mask id="mask3_2127_25389" style="mask-type:alpha" maskUnits="userSpaceOnUse" x="-44" y="129" width="88" height="82">
<rect x="-43.5459" y="129.6" width="86.9393" height="80.6" fill="#D9D9D9"/>
</mask>
<g mask="url(#mask3_2127_25389)">
<path d="M-43.5454 130.449C4.06272 130.449 42.5452 166.214 42.5454 210.2C42.5454 254.186 4.06286 289.952 -43.5454 289.952C-91.1537 289.952 -129.636 254.186 -129.636 210.2C-129.636 166.214 -91.1536 130.449 -43.5454 130.449Z" stroke="#A69E3F" stroke-width="1.69684"/>
<path d="M43.3936 130.449C91.0017 130.449 129.484 166.214 129.484 210.2C129.484 254.186 91.0018 289.952 43.3936 289.952C-4.21477 289.952 -42.6973 254.186 -42.6973 210.2C-42.697 166.214 -4.21463 130.449 43.3936 130.449Z" stroke="#A69E3F" stroke-width="1.69684"/>
<path d="M-43.5454 49.8486C4.06272 49.8487 42.5452 85.6136 42.5454 129.6C42.5454 173.586 4.06286 209.351 -43.5454 209.352C-91.1537 209.352 -129.636 173.586 -129.636 129.6C-129.636 85.6136 -91.1536 49.8486 -43.5454 49.8486Z" stroke="#A69E3F" stroke-width="1.69684"/>
<path d="M43.3936 49.8486C91.0017 49.8487 129.484 85.6136 129.484 129.6C129.484 173.586 91.0018 209.351 43.3936 209.352C-4.21477 209.352 -42.6973 173.586 -42.6973 129.6C-42.697 85.6136 -4.21463 49.8486 43.3936 49.8486Z" stroke="#A69E3F" stroke-width="1.69684"/>
</g>
<mask id="mask4_2127_25389" style="mask-type:alpha" maskUnits="userSpaceOnUse" x="-44" y="49" width="88" height="81">
<rect x="-43.5459" y="49.0002" width="86.9393" height="80.6" fill="#D9D9D9"/>
</mask>
<g mask="url(#mask4_2127_25389)">
<path d="M-43.5454 49.8489C4.06272 49.8489 42.5452 85.6138 42.5454 129.6C42.5454 173.586 4.06286 209.352 -43.5454 209.352C-91.1537 209.352 -129.636 173.586 -129.636 129.6C-129.636 85.6138 -91.1536 49.8489 -43.5454 49.8489Z" stroke="#A69E3F" stroke-width="1.69684"/>
<path d="M43.3936 49.8489C91.0017 49.8489 129.484 85.6138 129.484 129.6C129.484 173.586 91.0018 209.352 43.3936 209.352C-4.21477 209.352 -42.6973 173.586 -42.6973 129.6C-42.697 85.6138 -4.21463 49.8489 43.3936 49.8489Z" stroke="#A69E3F" stroke-width="1.69684"/>
<path d="M-43.5454 -30.7512C4.06272 -30.7512 42.5452 5.01374 42.5454 48.9998C42.5454 92.986 4.06286 128.752 -43.5454 128.752C-91.1537 128.752 -129.636 92.986 -129.636 48.9998C-129.636 5.0137 -91.1536 -30.7512 -43.5454 -30.7512Z" stroke="#A69E3F" stroke-width="1.69684"/>
<path d="M43.3936 -30.7512C91.0017 -30.7512 129.484 5.01374 129.484 48.9998C129.484 92.986 91.0018 128.752 43.3936 128.752C-4.21477 128.752 -42.6973 92.986 -42.6973 48.9998C-42.697 5.0137 -4.21463 -30.7512 43.3936 -30.7512Z" stroke="#A69E3F" stroke-width="1.69684"/>
</g>
<mask id="mask5_2127_25389" style="mask-type:alpha" maskUnits="userSpaceOnUse" x="-44" y="290" width="88" height="82">
<rect x="-43.5459" y="290.8" width="86.9393" height="80.6" fill="#D9D9D9"/>
</mask>
<g mask="url(#mask5_2127_25389)">
<path d="M-43.5454 291.649C4.06272 291.649 42.5452 327.414 42.5454 371.4C42.5454 415.386 4.06286 451.152 -43.5454 451.152C-91.1537 451.152 -129.636 415.386 -129.636 371.4C-129.636 327.414 -91.1536 291.649 -43.5454 291.649Z" stroke="#A69E3F" stroke-width="1.69684"/>
<path d="M43.3936 291.649C91.0017 291.649 129.484 327.414 129.484 371.4C129.484 415.386 91.0018 451.152 43.3936 451.152C-4.21477 451.152 -42.6973 415.386 -42.6973 371.4C-42.697 327.414 -4.21463 291.649 43.3936 291.649Z" stroke="#A69E3F" stroke-width="1.69684"/>
<path d="M-43.5454 211.049C4.06272 211.049 42.5452 246.814 42.5454 290.8C42.5454 334.786 4.06286 370.551 -43.5454 370.552C-91.1537 370.552 -129.636 334.786 -129.636 290.8C-129.636 246.814 -91.1536 211.049 -43.5454 211.049Z" stroke="#A69E3F" stroke-width="1.69684"/>
<path d="M43.3936 211.049C91.0017 211.049 129.484 246.814 129.484 290.8C129.484 334.786 91.0018 370.551 43.3936 370.552C-4.21477 370.552 -42.6973 334.786 -42.6973 290.8C-42.697 246.814 -4.21463 211.049 43.3936 211.049Z" stroke="#A69E3F" stroke-width="1.69684"/>
</g>
<mask id="mask6_2127_25389" style="mask-type:alpha" maskUnits="userSpaceOnUse" x="-44" y="371" width="88" height="82">
<rect x="-43.5459" y="371.4" width="86.9393" height="80.6" fill="#D9D9D9"/>
</mask>
<g mask="url(#mask6_2127_25389)">
<path d="M-43.5454 372.249C4.06272 372.249 42.5452 408.014 42.5454 452C42.5454 495.986 4.06286 531.752 -43.5454 531.752C-91.1537 531.752 -129.636 495.986 -129.636 452C-129.636 408.014 -91.1536 372.249 -43.5454 372.249Z" stroke="#A69E3F" stroke-width="1.69684"/>
<path d="M43.3936 372.249C91.0017 372.249 129.484 408.014 129.484 452C129.484 495.986 91.0018 531.752 43.3936 531.752C-4.21477 531.752 -42.6973 495.986 -42.6973 452C-42.697 408.014 -4.21463 372.249 43.3936 372.249Z" stroke="#A69E3F" stroke-width="1.69684"/>
<path d="M-43.5454 291.649C4.06272 291.649 42.5452 327.414 42.5454 371.4C42.5454 415.386 4.06286 451.152 -43.5454 451.152C-91.1537 451.152 -129.636 415.386 -129.636 371.4C-129.636 327.414 -91.1536 291.649 -43.5454 291.649Z" stroke="#A69E3F" stroke-width="1.69684"/>
<path d="M43.3936 291.649C91.0017 291.649 129.484 327.414 129.484 371.4C129.484 415.386 91.0018 451.152 43.3936 451.152C-4.21477 451.152 -42.6973 415.386 -42.6973 371.4C-42.697 327.414 -4.21463 291.649 43.3936 291.649Z" stroke="#A69E3F" stroke-width="1.69684"/>
</g>
<mask id="mask7_2127_25389" style="mask-type:alpha" maskUnits="userSpaceOnUse" x="-44" y="452" width="88" height="81">
<rect x="-43.5459" y="452" width="86.9393" height="80.6" fill="#D9D9D9"/>
</mask>
<g mask="url(#mask7_2127_25389)">
<path d="M-43.5454 452.849C4.06272 452.849 42.5452 488.614 42.5454 532.6C42.5454 576.586 4.06286 612.352 -43.5454 612.352C-91.1537 612.352 -129.636 576.586 -129.636 532.6C-129.636 488.614 -91.1536 452.849 -43.5454 452.849Z" stroke="#A69E3F" stroke-width="1.69684"/>
<path d="M43.3936 452.849C91.0017 452.849 129.484 488.614 129.484 532.6C129.484 576.586 91.0018 612.352 43.3936 612.352C-4.21477 612.352 -42.6973 576.586 -42.6973 532.6C-42.697 488.614 -4.21463 452.849 43.3936 452.849Z" stroke="#A69E3F" stroke-width="1.69684"/>
<path d="M-43.5454 372.249C4.06272 372.249 42.5452 408.014 42.5454 452C42.5454 495.986 4.06286 531.752 -43.5454 531.752C-91.1537 531.752 -129.636 495.986 -129.636 452C-129.636 408.014 -91.1536 372.249 -43.5454 372.249Z" stroke="#A69E3F" stroke-width="1.69684"/>
<path d="M43.3936 372.249C91.0017 372.249 129.484 408.014 129.484 452C129.484 495.986 91.0018 531.752 43.3936 531.752C-4.21477 531.752 -42.6973 495.986 -42.6973 452C-42.697 408.014 -4.21463 372.249 43.3936 372.249Z" stroke="#A69E3F" stroke-width="1.69684"/>
</g>
<mask id="mask8_2127_25389" style="mask-type:alpha" maskUnits="userSpaceOnUse" x="-44" y="532" width="88" height="82">
<rect x="-43.5459" y="532.6" width="86.9393" height="80.6" fill="#D9D9D9"/>
</mask>
<g mask="url(#mask8_2127_25389)">
<path d="M-43.5454 533.449C4.06272 533.449 42.5452 569.214 42.5454 613.2C42.5454 657.186 4.06286 692.952 -43.5454 692.952C-91.1537 692.952 -129.636 657.186 -129.636 613.2C-129.636 569.214 -91.1536 533.449 -43.5454 533.449Z" stroke="#A69E3F" stroke-width="1.69684"/>
<path d="M43.3936 533.449C91.0017 533.449 129.484 569.214 129.484 613.2C129.484 657.186 91.0018 692.952 43.3936 692.952C-4.21477 692.952 -42.6973 657.186 -42.6973 613.2C-42.697 569.214 -4.21463 533.449 43.3936 533.449Z" stroke="#A69E3F" stroke-width="1.69684"/>
<path d="M-43.5454 452.849C4.06272 452.849 42.5452 488.614 42.5454 532.6C42.5454 576.586 4.06286 612.351 -43.5454 612.352C-91.1537 612.352 -129.636 576.586 -129.636 532.6C-129.636 488.614 -91.1536 452.849 -43.5454 452.849Z" stroke="#A69E3F" stroke-width="1.69684"/>
<path d="M43.3936 452.849C91.0017 452.849 129.484 488.614 129.484 532.6C129.484 576.586 91.0018 612.351 43.3936 612.352C-4.21477 612.352 -42.6973 576.586 -42.6973 532.6C-42.697 488.614 -4.21463 452.849 43.3936 452.849Z" stroke="#A69E3F" stroke-width="1.69684"/>
</g>
<mask id="mask9_2127_25389" style="mask-type:alpha" maskUnits="userSpaceOnUse" x="-44" y="613" width="88" height="81">
<rect x="-43.5459" y="613.2" width="86.9393" height="80.6" fill="#D9D9D9"/>
</mask>
<g mask="url(#mask9_2127_25389)">
<path d="M-43.5454 614.049C4.06272 614.049 42.5452 649.814 42.5454 693.8C42.5454 737.786 4.06286 773.552 -43.5454 773.552C-91.1537 773.552 -129.636 737.786 -129.636 693.8C-129.636 649.814 -91.1536 614.049 -43.5454 614.049Z" stroke="#A69E3F" stroke-width="1.69684"/>
<path d="M43.3936 614.049C91.0017 614.049 129.484 649.814 129.484 693.8C129.484 737.786 91.0018 773.552 43.3936 773.552C-4.21477 773.552 -42.6973 737.786 -42.6973 693.8C-42.697 649.814 -4.21463 614.049 43.3936 614.049Z" stroke="#A69E3F" stroke-width="1.69684"/>
<path d="M-43.5454 533.449C4.06272 533.449 42.5452 569.214 42.5454 613.2C42.5454 657.186 4.06286 692.952 -43.5454 692.952C-91.1537 692.952 -129.636 657.186 -129.636 613.2C-129.636 569.214 -91.1536 533.449 -43.5454 533.449Z" stroke="#A69E3F" stroke-width="1.69684"/>
<path d="M43.3936 533.449C91.0017 533.449 129.484 569.214 129.484 613.2C129.484 657.186 91.0018 692.952 43.3936 692.952C-4.21477 692.952 -42.6973 657.186 -42.6973 613.2C-42.697 569.214 -4.21463 533.449 43.3936 533.449Z" stroke="#A69E3F" stroke-width="1.69684"/>
</g>
<mask id="mask10_2127_25389" style="mask-type:alpha" maskUnits="userSpaceOnUse" x="-44" y="693" width="88" height="82">
<rect x="-43.5459" y="693.8" width="86.9393" height="80.6" fill="#D9D9D9"/>
</mask>
<g mask="url(#mask10_2127_25389)">
<path d="M-43.5454 694.648C4.06272 694.649 42.5452 730.413 42.5454 774.399C42.5454 818.386 4.06286 854.151 -43.5454 854.151C-91.1537 854.151 -129.636 818.386 -129.636 774.399C-129.636 730.413 -91.1536 694.648 -43.5454 694.648Z" stroke="#A69E3F" stroke-width="1.69684"/>
<path d="M43.3936 694.648C91.0017 694.649 129.484 730.413 129.484 774.399C129.484 818.386 91.0018 854.151 43.3936 854.151C-4.21477 854.151 -42.6973 818.386 -42.6973 774.399C-42.697 730.413 -4.21463 694.648 43.3936 694.648Z" stroke="#A69E3F" stroke-width="1.69684"/>
<path d="M-43.5454 614.048C4.06272 614.048 42.5452 649.813 42.5454 693.799C42.5454 737.786 4.06286 773.551 -43.5454 773.551C-91.1537 773.551 -129.636 737.786 -129.636 693.799C-129.636 649.813 -91.1536 614.048 -43.5454 614.048Z" stroke="#A69E3F" stroke-width="1.69684"/>
<path d="M43.3936 614.048C91.0017 614.048 129.484 649.813 129.484 693.799C129.484 737.786 91.0018 773.551 43.3936 773.551C-4.21477 773.551 -42.6973 737.786 -42.6973 693.799C-42.697 649.813 -4.21463 614.048 43.3936 614.048Z" stroke="#A69E3F" stroke-width="1.69684"/>
</g>
<mask id="mask11_2127_25389" style="mask-type:alpha" maskUnits="userSpaceOnUse" x="43" y="210" width="88" height="81">
<rect x="43.3936" y="210.2" width="86.9393" height="80.6" fill="#D9D9D9"/>
</mask>
<g mask="url(#mask11_2127_25389)">
<path d="M43.394 211.049C91.0022 211.049 129.485 246.814 129.485 290.8C129.485 334.786 91.0023 370.552 43.394 370.552C-4.21428 370.552 -42.6968 334.786 -42.6968 290.8C-42.6966 246.814 -4.21414 211.049 43.394 211.049Z" stroke="#A69E3F" stroke-width="1.69684"/>
<path d="M130.333 211.049C177.941 211.049 216.424 246.814 216.424 290.8C216.424 334.786 177.941 370.552 130.333 370.552C82.7247 370.552 44.2422 334.786 44.2422 290.8C44.2424 246.814 82.7248 211.049 130.333 211.049Z" stroke="#A69E3F" stroke-width="1.69684"/>
<path d="M43.394 130.449C91.0022 130.449 129.485 166.214 129.485 210.2C129.485 254.186 91.0023 289.952 43.394 289.952C-4.21428 289.952 -42.6968 254.186 -42.6968 210.2C-42.6966 166.214 -4.21414 130.449 43.394 130.449Z" stroke="#A69E3F" stroke-width="1.69684"/>
<path d="M130.333 130.449C177.941 130.449 216.424 166.214 216.424 210.2C216.424 254.186 177.941 289.952 130.333 289.952C82.7247 289.952 44.2422 254.186 44.2422 210.2C44.2424 166.214 82.7248 130.449 130.333 130.449Z" stroke="#A69E3F" stroke-width="1.69684"/>
</g>
<mask id="mask12_2127_25389" style="mask-type:alpha" maskUnits="userSpaceOnUse" x="43" y="129" width="88" height="82">
<rect x="43.3936" y="129.6" width="86.9393" height="80.6" fill="#D9D9D9"/>
</mask>
<g mask="url(#mask12_2127_25389)">
<path d="M43.394 130.449C91.0022 130.449 129.485 166.214 129.485 210.2C129.485 254.186 91.0023 289.952 43.394 289.952C-4.21428 289.952 -42.6968 254.186 -42.6968 210.2C-42.6966 166.214 -4.21414 130.449 43.394 130.449Z" stroke="#A69E3F" stroke-width="1.69684"/>
<path d="M130.333 130.449C177.941 130.449 216.424 166.214 216.424 210.2C216.424 254.186 177.941 289.952 130.333 289.952C82.7247 289.952 44.2422 254.186 44.2422 210.2C44.2424 166.214 82.7248 130.449 130.333 130.449Z" stroke="#A69E3F" stroke-width="1.69684"/>
<path d="M43.394 49.8486C91.0022 49.8487 129.485 85.6136 129.485 129.6C129.485 173.586 91.0023 209.351 43.394 209.352C-4.21428 209.352 -42.6968 173.586 -42.6968 129.6C-42.6966 85.6136 -4.21414 49.8486 43.394 49.8486Z" stroke="#A69E3F" stroke-width="1.69684"/>
<path d="M130.333 49.8486C177.941 49.8487 216.424 85.6136 216.424 129.6C216.424 173.586 177.941 209.351 130.333 209.352C82.7247 209.352 44.2422 173.586 44.2422 129.6C44.2424 85.6136 82.7248 49.8486 130.333 49.8486Z" stroke="#A69E3F" stroke-width="1.69684"/>
</g>
<mask id="mask13_2127_25389" style="mask-type:alpha" maskUnits="userSpaceOnUse" x="43" y="49" width="88" height="81">
<rect x="43.3936" y="49.0002" width="86.9393" height="80.6" fill="#D9D9D9"/>
</mask>
<g mask="url(#mask13_2127_25389)">
<path d="M43.394 49.8489C91.0022 49.8489 129.485 85.6138 129.485 129.6C129.485 173.586 91.0023 209.352 43.394 209.352C-4.21428 209.352 -42.6968 173.586 -42.6968 129.6C-42.6966 85.6138 -4.21414 49.8489 43.394 49.8489Z" stroke="#A69E3F" stroke-width="1.69684"/>
<path d="M130.333 49.8489C177.941 49.8489 216.424 85.6138 216.424 129.6C216.424 173.586 177.941 209.352 130.333 209.352C82.7247 209.352 44.2422 173.586 44.2422 129.6C44.2424 85.6138 82.7248 49.8489 130.333 49.8489Z" stroke="#A69E3F" stroke-width="1.69684"/>
<path d="M43.394 -30.7512C91.0022 -30.7512 129.485 5.01374 129.485 48.9998C129.485 92.986 91.0023 128.752 43.394 128.752C-4.21428 128.752 -42.6968 92.986 -42.6968 48.9998C-42.6966 5.0137 -4.21414 -30.7512 43.394 -30.7512Z" stroke="#A69E3F" stroke-width="1.69684"/>
<path d="M130.333 -30.7512C177.941 -30.7512 216.424 5.01374 216.424 48.9998C216.424 92.986 177.941 128.752 130.333 128.752C82.7247 128.752 44.2422 92.986 44.2422 48.9998C44.2424 5.0137 82.7248 -30.7512 130.333 -30.7512Z" stroke="#A69E3F" stroke-width="1.69684"/>
</g>
<mask id="mask14_2127_25389" style="mask-type:alpha" maskUnits="userSpaceOnUse" x="43" y="290" width="88" height="82">
<rect x="43.3936" y="290.8" width="86.9393" height="80.6" fill="#D9D9D9"/>
</mask>
<g mask="url(#mask14_2127_25389)">
<path d="M43.394 291.649C91.0022 291.649 129.485 327.414 129.485 371.4C129.485 415.386 91.0023 451.152 43.394 451.152C-4.21428 451.152 -42.6968 415.386 -42.6968 371.4C-42.6966 327.414 -4.21414 291.649 43.394 291.649Z" stroke="#A69E3F" stroke-width="1.69684"/>
<path d="M130.333 291.649C177.941 291.649 216.424 327.414 216.424 371.4C216.424 415.386 177.941 451.152 130.333 451.152C82.7247 451.152 44.2422 415.386 44.2422 371.4C44.2424 327.414 82.7248 291.649 130.333 291.649Z" stroke="#A69E3F" stroke-width="1.69684"/>
<path d="M43.394 211.049C91.0022 211.049 129.485 246.814 129.485 290.8C129.485 334.786 91.0023 370.551 43.394 370.552C-4.21428 370.552 -42.6968 334.786 -42.6968 290.8C-42.6966 246.814 -4.21414 211.049 43.394 211.049Z" stroke="#A69E3F" stroke-width="1.69684"/>
<path d="M130.333 211.049C177.941 211.049 216.424 246.814 216.424 290.8C216.424 334.786 177.941 370.551 130.333 370.552C82.7247 370.552 44.2422 334.786 44.2422 290.8C44.2424 246.814 82.7248 211.049 130.333 211.049Z" stroke="#A69E3F" stroke-width="1.69684"/>
</g>
<mask id="mask15_2127_25389" style="mask-type:alpha" maskUnits="userSpaceOnUse" x="43" y="371" width="88" height="82">
<rect x="43.3936" y="371.4" width="86.9393" height="80.6" fill="#D9D9D9"/>
</mask>
<g mask="url(#mask15_2127_25389)">
<path d="M43.394 372.249C91.0022 372.249 129.485 408.014 129.485 452C129.485 495.986 91.0023 531.752 43.394 531.752C-4.21428 531.752 -42.6968 495.986 -42.6968 452C-42.6966 408.014 -4.21414 372.249 43.394 372.249Z" stroke="#A69E3F" stroke-width="1.69684"/>
<path d="M130.333 372.249C177.941 372.249 216.424 408.014 216.424 452C216.424 495.986 177.941 531.752 130.333 531.752C82.7247 531.752 44.2422 495.986 44.2422 452C44.2424 408.014 82.7248 372.249 130.333 372.249Z" stroke="#A69E3F" stroke-width="1.69684"/>
<path d="M43.394 291.649C91.0022 291.649 129.485 327.414 129.485 371.4C129.485 415.386 91.0023 451.152 43.394 451.152C-4.21428 451.152 -42.6968 415.386 -42.6968 371.4C-42.6966 327.414 -4.21414 291.649 43.394 291.649Z" stroke="#A69E3F" stroke-width="1.69684"/>
<path d="M130.333 291.649C177.941 291.649 216.424 327.414 216.424 371.4C216.424 415.386 177.941 451.152 130.333 451.152C82.7247 451.152 44.2422 415.386 44.2422 371.4C44.2424 327.414 82.7248 291.649 130.333 291.649Z" stroke="#A69E3F" stroke-width="1.69684"/>
</g>
<mask id="mask16_2127_25389" style="mask-type:alpha" maskUnits="userSpaceOnUse" x="43" y="452" width="88" height="81">
<rect x="43.3936" y="452" width="86.9393" height="80.6" fill="#D9D9D9"/>
</mask>
<g mask="url(#mask16_2127_25389)">
<path d="M43.394 452.849C91.0022 452.849 129.485 488.614 129.485 532.6C129.485 576.586 91.0023 612.352 43.394 612.352C-4.21428 612.352 -42.6968 576.586 -42.6968 532.6C-42.6966 488.614 -4.21414 452.849 43.394 452.849Z" stroke="#A69E3F" stroke-width="1.69684"/>
<path d="M130.333 452.849C177.941 452.849 216.424 488.614 216.424 532.6C216.424 576.586 177.941 612.352 130.333 612.352C82.7247 612.352 44.2422 576.586 44.2422 532.6C44.2424 488.614 82.7248 452.849 130.333 452.849Z" stroke="#A69E3F" stroke-width="1.69684"/>
<path d="M43.394 372.249C91.0022 372.249 129.485 408.014 129.485 452C129.485 495.986 91.0023 531.752 43.394 531.752C-4.21428 531.752 -42.6968 495.986 -42.6968 452C-42.6966 408.014 -4.21414 372.249 43.394 372.249Z" stroke="#A69E3F" stroke-width="1.69684"/>
<path d="M130.333 372.249C177.941 372.249 216.424 408.014 216.424 452C216.424 495.986 177.941 531.752 130.333 531.752C82.7247 531.752 44.2422 495.986 44.2422 452C44.2424 408.014 82.7248 372.249 130.333 372.249Z" stroke="#A69E3F" stroke-width="1.69684"/>
</g>
<mask id="mask17_2127_25389" style="mask-type:alpha" maskUnits="userSpaceOnUse" x="43" y="532" width="88" height="82">
<rect x="43.3936" y="532.6" width="86.9393" height="80.6" fill="#D9D9D9"/>
</mask>
<g mask="url(#mask17_2127_25389)">
<path d="M43.394 533.449C91.0022 533.449 129.485 569.214 129.485 613.2C129.485 657.186 91.0023 692.952 43.394 692.952C-4.21428 692.952 -42.6968 657.186 -42.6968 613.2C-42.6966 569.214 -4.21414 533.449 43.394 533.449Z" stroke="#A69E3F" stroke-width="1.69684"/>
<path d="M130.333 533.449C177.941 533.449 216.424 569.214 216.424 613.2C216.424 657.186 177.941 692.952 130.333 692.952C82.7247 692.952 44.2422 657.186 44.2422 613.2C44.2424 569.214 82.7248 533.449 130.333 533.449Z" stroke="#A69E3F" stroke-width="1.69684"/>
<path d="M43.394 452.849C91.0022 452.849 129.485 488.614 129.485 532.6C129.485 576.586 91.0023 612.351 43.394 612.352C-4.21428 612.352 -42.6968 576.586 -42.6968 532.6C-42.6966 488.614 -4.21414 452.849 43.394 452.849Z" stroke="#A69E3F" stroke-width="1.69684"/>
<path d="M130.333 452.849C177.941 452.849 216.424 488.614 216.424 532.6C216.424 576.586 177.941 612.351 130.333 612.352C82.7247 612.352 44.2422 576.586 44.2422 532.6C44.2424 488.614 82.7248 452.849 130.333 452.849Z" stroke="#A69E3F" stroke-width="1.69684"/>
</g>
<mask id="mask18_2127_25389" style="mask-type:alpha" maskUnits="userSpaceOnUse" x="43" y="613" width="88" height="81">
<rect x="43.3936" y="613.2" width="86.9393" height="80.6" fill="#D9D9D9"/>
</mask>
<g mask="url(#mask18_2127_25389)">
<path d="M43.394 614.049C91.0022 614.049 129.485 649.814 129.485 693.8C129.485 737.786 91.0023 773.552 43.394 773.552C-4.21428 773.552 -42.6968 737.786 -42.6968 693.8C-42.6966 649.814 -4.21414 614.049 43.394 614.049Z" stroke="#A69E3F" stroke-width="1.69684"/>
<path d="M130.333 614.049C177.941 614.049 216.424 649.814 216.424 693.8C216.424 737.786 177.941 773.552 130.333 773.552C82.7247 773.552 44.2422 737.786 44.2422 693.8C44.2424 649.814 82.7248 614.049 130.333 614.049Z" stroke="#A69E3F" stroke-width="1.69684"/>
<path d="M43.394 533.449C91.0022 533.449 129.485 569.214 129.485 613.2C129.485 657.186 91.0023 692.952 43.394 692.952C-4.21428 692.952 -42.6968 657.186 -42.6968 613.2C-42.6966 569.214 -4.21414 533.449 43.394 533.449Z" stroke="#A69E3F" stroke-width="1.69684"/>
<path d="M130.333 533.449C177.941 533.449 216.424 569.214 216.424 613.2C216.424 657.186 177.941 692.952 130.333 692.952C82.7247 692.952 44.2422 657.186 44.2422 613.2C44.2424 569.214 82.7248 533.449 130.333 533.449Z" stroke="#A69E3F" stroke-width="1.69684"/>
</g>
<mask id="mask19_2127_25389" style="mask-type:alpha" maskUnits="userSpaceOnUse" x="43" y="693" width="88" height="82">
<rect x="43.3936" y="693.8" width="86.9393" height="80.6" fill="#D9D9D9"/>
</mask>
<g mask="url(#mask19_2127_25389)">
<path d="M43.394 694.648C91.0022 694.649 129.485 730.413 129.485 774.399C129.485 818.386 91.0023 854.151 43.394 854.151C-4.21428 854.151 -42.6968 818.386 -42.6968 774.399C-42.6966 730.413 -4.21414 694.648 43.394 694.648Z" stroke="#A69E3F" stroke-width="1.69684"/>
<path d="M130.333 694.648C177.941 694.649 216.424 730.413 216.424 774.399C216.424 818.386 177.941 854.151 130.333 854.151C82.7247 854.151 44.2422 818.386 44.2422 774.399C44.2424 730.413 82.7248 694.648 130.333 694.648Z" stroke="#A69E3F" stroke-width="1.69684"/>
<path d="M43.394 614.048C91.0022 614.048 129.485 649.813 129.485 693.799C129.485 737.786 91.0023 773.551 43.394 773.551C-4.21428 773.551 -42.6968 737.786 -42.6968 693.799C-42.6966 649.813 -4.21414 614.048 43.394 614.048Z" stroke="#A69E3F" stroke-width="1.69684"/>
<path d="M130.333 614.048C177.941 614.048 216.424 649.813 216.424 693.799C216.424 737.786 177.941 773.551 130.333 773.551C82.7247 773.551 44.2422 737.786 44.2422 693.799C44.2424 649.813 82.7248 614.048 130.333 614.048Z" stroke="#A69E3F" stroke-width="1.69684"/>
</g>
<mask id="mask20_2127_25389" style="mask-type:alpha" maskUnits="userSpaceOnUse" x="130" y="210" width="88" height="81">
<rect x="130.333" y="210.2" width="86.9393" height="80.6" fill="#D9D9D9"/>
</mask>
<g mask="url(#mask20_2127_25389)">
<path d="M130.333 211.049C177.942 211.049 216.424 246.814 216.424 290.8C216.424 334.786 177.942 370.552 130.333 370.552C82.7252 370.552 44.2427 334.786 44.2427 290.8C44.2429 246.814 82.7253 211.049 130.333 211.049Z" stroke="#A69E3F" stroke-width="1.69684"/>
<path d="M217.272 211.049C264.881 211.049 303.363 246.814 303.363 290.8C303.363 334.786 264.881 370.552 217.272 370.552C169.664 370.552 131.182 334.786 131.182 290.8C131.182 246.814 169.664 211.049 217.272 211.049Z" stroke="#A69E3F" stroke-width="1.69684"/>
<path d="M130.333 130.449C177.942 130.449 216.424 166.214 216.424 210.2C216.424 254.186 177.942 289.952 130.333 289.952C82.7252 289.952 44.2427 254.186 44.2427 210.2C44.2429 166.214 82.7253 130.449 130.333 130.449Z" stroke="#A69E3F" stroke-width="1.69684"/>
<path d="M217.272 130.449C264.881 130.449 303.363 166.214 303.363 210.2C303.363 254.186 264.881 289.952 217.272 289.952C169.664 289.952 131.182 254.186 131.182 210.2C131.182 166.214 169.664 130.449 217.272 130.449Z" stroke="#A69E3F" stroke-width="1.69684"/>
</g>
<mask id="mask21_2127_25389" style="mask-type:alpha" maskUnits="userSpaceOnUse" x="130" y="129" width="88" height="82">
<rect x="130.333" y="129.6" width="86.9393" height="80.6" fill="#D9D9D9"/>
</mask>
<g mask="url(#mask21_2127_25389)">
<path d="M130.333 130.449C177.942 130.449 216.424 166.214 216.424 210.2C216.424 254.186 177.942 289.952 130.333 289.952C82.7252 289.952 44.2427 254.186 44.2427 210.2C44.2429 166.214 82.7253 130.449 130.333 130.449Z" stroke="#A69E3F" stroke-width="1.69684"/>
<path d="M217.272 130.449C264.881 130.449 303.363 166.214 303.363 210.2C303.363 254.186 264.881 289.952 217.272 289.952C169.664 289.952 131.182 254.186 131.182 210.2C131.182 166.214 169.664 130.449 217.272 130.449Z" stroke="#A69E3F" stroke-width="1.69684"/>
<path d="M130.333 49.8486C177.942 49.8487 216.424 85.6136 216.424 129.6C216.424 173.586 177.942 209.351 130.333 209.352C82.7252 209.352 44.2427 173.586 44.2427 129.6C44.2429 85.6136 82.7253 49.8486 130.333 49.8486Z" stroke="#A69E3F" stroke-width="1.69684"/>
<path d="M217.272 49.8486C264.881 49.8487 303.363 85.6136 303.363 129.6C303.363 173.586 264.881 209.351 217.272 209.352C169.664 209.352 131.182 173.586 131.182 129.6C131.182 85.6136 169.664 49.8486 217.272 49.8486Z" stroke="#A69E3F" stroke-width="1.69684"/>
</g>
<mask id="mask22_2127_25389" style="mask-type:alpha" maskUnits="userSpaceOnUse" x="130" y="49" width="88" height="81">
<rect x="130.333" y="49.0002" width="86.9393" height="80.6" fill="#D9D9D9"/>
</mask>
<g mask="url(#mask22_2127_25389)">
<path d="M130.333 49.8489C177.942 49.8489 216.424 85.6138 216.424 129.6C216.424 173.586 177.942 209.352 130.333 209.352C82.7252 209.352 44.2427 173.586 44.2427 129.6C44.2429 85.6138 82.7253 49.8489 130.333 49.8489Z" stroke="#A69E3F" stroke-width="1.69684"/>
<path d="M217.272 49.8489C264.881 49.8489 303.363 85.6138 303.363 129.6C303.363 173.586 264.881 209.352 217.272 209.352C169.664 209.352 131.182 173.586 131.182 129.6C131.182 85.6138 169.664 49.8489 217.272 49.8489Z" stroke="#A69E3F" stroke-width="1.69684"/>
<path d="M130.333 -30.7512C177.942 -30.7512 216.424 5.01374 216.424 48.9998C216.424 92.986 177.942 128.752 130.333 128.752C82.7252 128.752 44.2427 92.986 44.2427 48.9998C44.2429 5.0137 82.7253 -30.7512 130.333 -30.7512Z" stroke="#A69E3F" stroke-width="1.69684"/>
<path d="M217.272 -30.7512C264.881 -30.7512 303.363 5.01374 303.363 48.9998C303.363 92.986 264.881 128.752 217.272 128.752C169.664 128.752 131.182 92.986 131.182 48.9998C131.182 5.0137 169.664 -30.7512 217.272 -30.7512Z" stroke="#A69E3F" stroke-width="1.69684"/>
</g>
<mask id="mask23_2127_25389" style="mask-type:alpha" maskUnits="userSpaceOnUse" x="130" y="290" width="88" height="82">
<rect x="130.333" y="290.8" width="86.9393" height="80.6" fill="#D9D9D9"/>
</mask>
<g mask="url(#mask23_2127_25389)">
<path d="M130.333 291.649C177.942 291.649 216.424 327.414 216.424 371.4C216.424 415.386 177.942 451.152 130.333 451.152C82.7252 451.152 44.2427 415.386 44.2427 371.4C44.2429 327.414 82.7253 291.649 130.333 291.649Z" stroke="#A69E3F" stroke-width="1.69684"/>
<path d="M217.272 291.649C264.881 291.649 303.363 327.414 303.363 371.4C303.363 415.386 264.881 451.152 217.272 451.152C169.664 451.152 131.182 415.386 131.182 371.4C131.182 327.414 169.664 291.649 217.272 291.649Z" stroke="#A69E3F" stroke-width="1.69684"/>
<path d="M130.333 211.049C177.942 211.049 216.424 246.814 216.424 290.8C216.424 334.786 177.942 370.551 130.333 370.552C82.7252 370.552 44.2427 334.786 44.2427 290.8C44.2429 246.814 82.7253 211.049 130.333 211.049Z" stroke="#A69E3F" stroke-width="1.69684"/>
<path d="M217.272 211.049C264.881 211.049 303.363 246.814 303.363 290.8C303.363 334.786 264.881 370.551 217.272 370.552C169.664 370.552 131.182 334.786 131.182 290.8C131.182 246.814 169.664 211.049 217.272 211.049Z" stroke="#A69E3F" stroke-width="1.69684"/>
</g>
<mask id="mask24_2127_25389" style="mask-type:alpha" maskUnits="userSpaceOnUse" x="130" y="371" width="88" height="82">
<rect x="130.333" y="371.4" width="86.9393" height="80.6" fill="#D9D9D9"/>
</mask>
<g mask="url(#mask24_2127_25389)">
<path d="M130.333 372.249C177.942 372.249 216.424 408.014 216.424 452C216.424 495.986 177.942 531.752 130.333 531.752C82.7252 531.752 44.2427 495.986 44.2427 452C44.2429 408.014 82.7253 372.249 130.333 372.249Z" stroke="#A69E3F" stroke-width="1.69684"/>
<path d="M217.272 372.249C264.881 372.249 303.363 408.014 303.363 452C303.363 495.986 264.881 531.752 217.272 531.752C169.664 531.752 131.182 495.986 131.182 452C131.182 408.014 169.664 372.249 217.272 372.249Z" stroke="#A69E3F" stroke-width="1.69684"/>
<path d="M130.333 291.649C177.942 291.649 216.424 327.414 216.424 371.4C216.424 415.386 177.942 451.152 130.333 451.152C82.7252 451.152 44.2427 415.386 44.2427 371.4C44.2429 327.414 82.7253 291.649 130.333 291.649Z" stroke="#A69E3F" stroke-width="1.69684"/>
<path d="M217.272 291.649C264.881 291.649 303.363 327.414 303.363 371.4C303.363 415.386 264.881 451.152 217.272 451.152C169.664 451.152 131.182 415.386 131.182 371.4C131.182 327.414 169.664 291.649 217.272 291.649Z" stroke="#A69E3F" stroke-width="1.69684"/>
</g>
<mask id="mask25_2127_25389" style="mask-type:alpha" maskUnits="userSpaceOnUse" x="130" y="452" width="88" height="81">
<rect x="130.333" y="452" width="86.9393" height="80.6" fill="#D9D9D9"/>
</mask>
<g mask="url(#mask25_2127_25389)">
<path d="M130.333 452.849C177.942 452.849 216.424 488.614 216.424 532.6C216.424 576.586 177.942 612.352 130.333 612.352C82.7252 612.352 44.2427 576.586 44.2427 532.6C44.2429 488.614 82.7253 452.849 130.333 452.849Z" stroke="#A69E3F" stroke-width="1.69684"/>
<path d="M217.272 452.849C264.881 452.849 303.363 488.614 303.363 532.6C303.363 576.586 264.881 612.352 217.272 612.352C169.664 612.352 131.182 576.586 131.182 532.6C131.182 488.614 169.664 452.849 217.272 452.849Z" stroke="#A69E3F" stroke-width="1.69684"/>
<path d="M130.333 372.249C177.942 372.249 216.424 408.014 216.424 452C216.424 495.986 177.942 531.752 130.333 531.752C82.7252 531.752 44.2427 495.986 44.2427 452C44.2429 408.014 82.7253 372.249 130.333 372.249Z" stroke="#A69E3F" stroke-width="1.69684"/>
<path d="M217.272 372.249C264.881 372.249 303.363 408.014 303.363 452C303.363 495.986 264.881 531.752 217.272 531.752C169.664 531.752 131.182 495.986 131.182 452C131.182 408.014 169.664 372.249 217.272 372.249Z" stroke="#A69E3F" stroke-width="1.69684"/>
</g>
<mask id="mask26_2127_25389" style="mask-type:alpha" maskUnits="userSpaceOnUse" x="130" y="532" width="88" height="82">
<rect x="130.333" y="532.6" width="86.9393" height="80.6" fill="#D9D9D9"/>
</mask>
<g mask="url(#mask26_2127_25389)">
<path d="M130.333 533.449C177.942 533.449 216.424 569.214 216.424 613.2C216.424 657.186 177.942 692.952 130.333 692.952C82.7252 692.952 44.2427 657.186 44.2427 613.2C44.2429 569.214 82.7253 533.449 130.333 533.449Z" stroke="#A69E3F" stroke-width="1.69684"/>
<path d="M217.272 533.449C264.881 533.449 303.363 569.214 303.363 613.2C303.363 657.186 264.881 692.952 217.272 692.952C169.664 692.952 131.182 657.186 131.182 613.2C131.182 569.214 169.664 533.449 217.272 533.449Z" stroke="#A69E3F" stroke-width="1.69684"/>
<path d="M130.333 452.849C177.942 452.849 216.424 488.614 216.424 532.6C216.424 576.586 177.942 612.351 130.333 612.352C82.7252 612.352 44.2427 576.586 44.2427 532.6C44.2429 488.614 82.7253 452.849 130.333 452.849Z" stroke="#A69E3F" stroke-width="1.69684"/>
<path d="M217.272 452.849C264.881 452.849 303.363 488.614 303.363 532.6C303.363 576.586 264.881 612.351 217.272 612.352C169.664 612.352 131.182 576.586 131.182 532.6C131.182 488.614 169.664 452.849 217.272 452.849Z" stroke="#A69E3F" stroke-width="1.69684"/>
</g>
<mask id="mask27_2127_25389" style="mask-type:alpha" maskUnits="userSpaceOnUse" x="130" y="613" width="88" height="81">
<rect x="130.333" y="613.2" width="86.9393" height="80.6" fill="#D9D9D9"/>
</mask>
<g mask="url(#mask27_2127_25389)">
<path d="M130.333 614.049C177.942 614.049 216.424 649.814 216.424 693.8C216.424 737.786 177.942 773.552 130.333 773.552C82.7252 773.552 44.2427 737.786 44.2427 693.8C44.2429 649.814 82.7253 614.049 130.333 614.049Z" stroke="#A69E3F" stroke-width="1.69684"/>
<path d="M217.272 614.049C264.881 614.049 303.363 649.814 303.363 693.8C303.363 737.786 264.881 773.552 217.272 773.552C169.664 773.552 131.182 737.786 131.182 693.8C131.182 649.814 169.664 614.049 217.272 614.049Z" stroke="#A69E3F" stroke-width="1.69684"/>
<path d="M130.333 533.449C177.942 533.449 216.424 569.214 216.424 613.2C216.424 657.186 177.942 692.952 130.333 692.952C82.7252 692.952 44.2427 657.186 44.2427 613.2C44.2429 569.214 82.7253 533.449 130.333 533.449Z" stroke="#A69E3F" stroke-width="1.69684"/>
<path d="M217.272 533.449C264.881 533.449 303.363 569.214 303.363 613.2C303.363 657.186 264.881 692.952 217.272 692.952C169.664 692.952 131.182 657.186 131.182 613.2C131.182 569.214 169.664 533.449 217.272 533.449Z" stroke="#A69E3F" stroke-width="1.69684"/>
</g>
<mask id="mask28_2127_25389" style="mask-type:alpha" maskUnits="userSpaceOnUse" x="130" y="693" width="88" height="82">
<rect x="130.333" y="693.8" width="86.9393" height="80.6" fill="#D9D9D9"/>
</mask>
<g mask="url(#mask28_2127_25389)">
<path d="M130.333 694.648C177.942 694.649 216.424 730.413 216.424 774.399C216.424 818.386 177.942 854.151 130.333 854.151C82.7252 854.151 44.2427 818.386 44.2427 774.399C44.2429 730.413 82.7253 694.648 130.333 694.648Z" stroke="#A69E3F" stroke-width="1.69684"/>
<path d="M217.272 694.648C264.881 694.649 303.363 730.413 303.363 774.399C303.363 818.386 264.881 854.151 217.272 854.151C169.664 854.151 131.182 818.386 131.182 774.399C131.182 730.413 169.664 694.648 217.272 694.648Z" stroke="#A69E3F" stroke-width="1.69684"/>
<path d="M130.333 614.048C177.942 614.048 216.424 649.813 216.424 693.799C216.424 737.786 177.942 773.551 130.333 773.551C82.7252 773.551 44.2427 737.786 44.2427 693.799C44.2429 649.813 82.7253 614.048 130.333 614.048Z" stroke="#A69E3F" stroke-width="1.69684"/>
<path d="M217.272 614.048C264.881 614.048 303.363 649.813 303.363 693.799C303.363 737.786 264.881 773.551 217.272 773.551C169.664 773.551 131.182 737.786 131.182 693.799C131.182 649.813 169.664 614.048 217.272 614.048Z" stroke="#A69E3F" stroke-width="1.69684"/>
</g>
</g>
<g filter="url(#filter1_d_2127_25389)">
<path d="M-5 0L169 0C169 0 8.59619 246 8.59619 481.5C8.59619 653 63.8077 772 63.8077 772H-5V0Z" fill="url(#dark_primary_gradient)"/>
</g>
</g>
<defs>
<filter id="filter0_d_2127_25389" x="-35.9" y="-31.4" width="309.319" height="839.567" filterUnits="userSpaceOnUse" color-interpolation-filters="sRGB">
<feFlood flood-opacity="0" result="BackgroundImageFix"/>
<feColorMatrix in="SourceAlpha" type="matrix" values="0 0 0 0 0 0 0 0 0 0 0 0 0 0 0 0 0 0 127 0" result="hardAlpha"/>
<feOffset dy="4"/>
<feGaussianBlur stdDeviation="16.7"/>
<feComposite in2="hardAlpha" operator="out"/>
<feColorMatrix type="matrix" values="0 0 0 0 0 0 0 0 0 0 0 0 0 0 0 0 0 0 0.4 0"/>
<feBlend mode="normal" in2="BackgroundImageFix" result="effect1_dropShadow_2127_25389"/>
<feBlend mode="normal" in="SourceGraphic" in2="effect1_dropShadow_2127_25389" result="shape"/>
</filter>
<filter id="filter1_d_2127_25389" x="-8.4" y="-7.4" width="196.8" height="794.8" filterUnits="userSpaceOnUse" color-interpolation-filters="sRGB">
<feFlood flood-opacity="0" result="BackgroundImageFix"/>
<feColorMatrix in="SourceAlpha" type="matrix" values="0 0 0 0 0 0 0 0 0 0 0 0 0 0 0 0 0 0 127 0" result="hardAlpha"/>
<feOffset dx="8" dy="4"/>
<feGaussianBlur stdDeviation="5.7"/>
<feComposite in2="hardAlpha" operator="out"/>
<feColorMatrix type="matrix" values="0 0 0 0 0 0 0 0 0 0 0 0 0 0 0 0 0 0 0.25 0"/>
<feBlend mode="normal" in2="BackgroundImageFix" result="effect1_dropShadow_2127_25389"/>
<feBlend mode="normal" in="SourceGraphic" in2="effect1_dropShadow_2127_25389" result="shape"/>
</filter>
<linearGradient id="paint0_linear_2127_25389" x1="-126" y1="-62" x2="352.228" y2="28.7293" gradientUnits="userSpaceOnUse">
<stop stop-color="#C8C5A5"/>
<stop offset="1" stop-color="#A69E3F"/>
</linearGradient>
<linearGradient id="paint1_linear_2127_25389" x1="-183.467" y1="36.325" x2="294.114" y2="9.84609" gradientUnits="userSpaceOnUse">
<stop stop-color="#A69E3F"/>
<stop offset="1" stop-color="#C8C5A5"/>
</linearGradient>
</defs>
</svg>
