<svg id="trustmfa_logo" xmlns="http://www.w3.org/2000/svg" xmlns:xlink="http://www.w3.org/1999/xlink" version="1.1" viewBox="0 0 272 82">
  <!-- Generator: Adobe Illustrator 29.5.1, SVG Export Plug-In . SVG Version: 2.1.0 Build 141)  -->
  <defs>
    <style>
      .st0 {
        fill: url(#linear-gradient2);
      }

      .st1 {
        fill: url(#linear-gradient1);
      }

      .st2 {
        fill: url(#linear-gradient);
      }

      .st3 {
        fill: #3d030f;
      }
    </style>
    <linearGradient id="linear-gradient" x1="26.8" y1="35.5" x2="69" y2="35.5" gradientTransform="translate(0 84) scale(1 -1)" gradientUnits="userSpaceOnUse">
      <stop offset="0" stop-color="#c8c5a5"/>
      <stop offset="1" stop-color="#a69e3f"/>
    </linearGradient>
    <linearGradient id="linear-gradient1" x1="-.3" y1="33.4" x2="33" y2="33.4" gradientTransform="translate(0 84) scale(1 -1)" gradientUnits="userSpaceOnUse">
      <stop offset="0" stop-color="#c8c5a5"/>
      <stop offset="1" stop-color="#a69e3f"/>
    </linearGradient>
    <linearGradient id="linear-gradient2" x1="62.9" y1="77.2" x2="75.6" y2="77.2" gradientTransform="translate(0 84) scale(1 -1)" gradientUnits="userSpaceOnUse">
      <stop offset="0" stop-color="#c8c5a5"/>
      <stop offset="1" stop-color="#a69e3f"/>
    </linearGradient>
  </defs>
  <path class="st2" d="M63.1,20.3c-11.1-10-25.9-4.2-35.6,1.6h-.2c-1.1.7-.4,2.3.9,2,7.8-2,16.1-1.9,21,4.9,5,6.8,6.9,20.4-8.2,37-1.4,1.6-3,3.2-4.8,4.8-2.5,2.3-5.3,4.7-8.5,7.1-2.3,1.8-.1,5.4,2.5,4.1,43.9-21.6,43-52.2,32.7-61.6h.2Z"/>
  <path class="st1" d="M33,67.8c-20.8-9.1-23-21.1-20.6-27.6,2-5.5,7.7-7.2,13.3-7.3.9,0,1.1-1.3.2-1.5h-.1c-7.7-2.1-18.9-3.2-24.5,5.7-4.9,7.8-.5,26.8,28.2,34.2,1.2-1.2,2.4-2.3,3.4-3.4h0Z"/>
  <path class="st0" d="M69.2,13.1c3.5,0,6.3-2.8,6.3-6.3s-2.8-6.3-6.3-6.3-6.3,2.8-6.3,6.3,2.8,6.3,6.3,6.3Z"/>
  <g>
    <path class="st3" d="M87.5,47v-.7l-.7-.2c-.4,0-.7-.3-.8-.6-.2-.2-.2-.6-.2-1.1,0,0,0-8.1,0-8.1v-7.5l7,18.3h1.8l6.6-18.5v15.9c0,.4,0,.8,0,1s-.4.4-.8.6l-.7.2v.7h8v-.7l-.7-.2c-.4-.2-.7-.4-.8-.6-.2-.2-.2-.5-.2-1v-16.6c0-.5,0-.8.2-1.1s.5-.5.9-.6l.5-.2v-.7h-6.4l-5.8,16-6.2-16h-6.3v.7l.8.3c.4.1.7.3.8.6.2.3.2.7.2,1.1v16.2c0,.5,0,.9-.2,1.2-.2.3-.5.5-.9.6l-.7.2v.7h.2c0,0,4.6,0,4.6,0Z"/>
    <path class="st3" d="M120,46.4c1.2-.7,2-1.6,2.7-2.8l-.5-.5c-.6.6-1.2,1.1-1.9,1.5-.7.3-1.1.5-2.7.5s-2.7-.6-3.6-1.5c-.9-.9-1.3-2.6-1.3-4.8h9.9c.1-.2.1-.4.1-.7h0v-.8c0-1.3-.3-2.4-.8-3.4-.6-1-1.3-1.7-2.3-2.3-.9-.6-2.1-.9-3.4-.9-1.4,0-2.7.3-3.9,1-1.2.7-2.2,1.7-3,2.9-.8,1.3-1.2,2.9-1.2,4.6s.3,3.2,1,4.4c.7,1.2,1.6,2.1,2.8,2.8,1.2.7,2.6,1,4.1,1s2.9-.3,4-1ZM113.1,34c.3-.9.6-1.5,1.1-1.9.5-.3,1.1-.5,1.7-.5h-.1c1.2,0,2,.4,2.4,1.4.5,1,.5,2.6.3,4.8h-5.9c.1-1.6.2-2.9.5-3.8Z"/>
    <path class="st3" d="M116.1,30.7s0,0,0,0c0,0,0,0,0,0h-.1Z"/>
    <path class="st3" d="M136,47.1l5.4-.4v-.7h-.4c-.4,0-.6-.3-.8-.6-.2-.2-.2-.6-.2-1,0,0,0-15.7.1-15.7v-4.6l-.4-.3-5.7,1.4v.8h.7c.5,0,.7.3.9.5.2.2.2.5.2,1v4.3c-.5-.3-1.1-.5-1.9-.8s-1-.3-2.3-.3-2.5.3-3.6.9c-1.1.6-1.9,1.5-2.6,2.8-.7,1.3-1,2.9-1,4.7s.3,3.4.9,4.6c.6,1.2,1.3,2.1,2.4,2.7,1.1.6,2.2.9,3.5.9h0c.9,0,1.7-.2,2.5-.5.7-.3,1.4-.6,2-1.1l.3,1.4ZM133,45.8h.1c-1.2,0-2.1-.6-2.8-1.6-.7-1-1.1-2.7-1.1-5.2s.3-4.3,1.1-5.4c.8-1.1,1.9-1.7,2.8-1.7s1.8.3,2.6.8v12.2c-.9.6-1.8.9-2.7.9Z"/>
    <path class="st3" d="M150.7,46.9v-.7h-.4c-.4-.1-.7-.3-.9-.6-.2-.2-.2-.6-.2-1v-13.4l-.4-.4-5.7,1.9v.7h.5c.4,0,.7.2.9.5.2.2.2.6.2,1v9.7c0,.4,0,.7-.3,1-.2.2-.5.4-.9.7h-.5v.6h7.7Z"/>
    <path class="st3" d="M146.8,28.9c.7,0,1.3-.2,1.8-.7.5-.4.8-.9.8-1.7s-.3-1.4-.8-1.8c-.5-.5-1.1-.7-1.8-.7s-1.3.3-1.8.7c-.5.5-.8,1.1-.8,1.8s.3,1.2.8,1.7,1.1.7,1.8.7Z"/>
    <path class="st3" d="M164.3,44.4c-.7.4-.8.6-2.5.6s-3-.5-3.8-1.7-1.2-2.4-1.2-4.9.4-4.3,1.1-5.4c.8-1.1,1.8-1.7,3.2-1.7s.7,0,.9.2.4.4.4.8v2c0,.7.3,1.2.7,1.7.4.5.9.7,1.5.7s1-.2,1.4-.5c.3-.3.5-.7.5-1.4s-.2-1.4-.7-2c-.5-.7-1.1-1.2-2-1.6-.9-.4-1.7-.6-3.2-.6s-2.9.3-4.2,1c-1.3.7-2.3,1.7-3.1,2.9-.7,1.2-1.1,2.7-1.1,4.5s.3,3.3,1,4.5,1.6,2.1,2.8,2.8,2.5,1,4,1v-.2c1.6,0,3-.3,4.1-1,1.1-.7,2-1.7,2.5-3l-.5-.4c-.5.8-1.1,1.3-1.8,1.7Z"/>
    <path class="st3" d="M172.6,47.3s0,0,0,0c0,0,0,0-.1,0h.2Z"/>
    <path class="st3" d="M183.8,45.7l-.3-.4h-.8c-.9,0-1.3-.5-1.3-1.4v-7.3c0-2.1-.5-3.7-1.5-4.6-1.1-.9-2.6-1.4-4.5-1.4s-2.3.2-3.3.5c-1,.3-1.8.8-2.4,1.4-.6.7-.9,1.4-.9,2.3s.1,1,.5,1.3c.4.3.8.5,1.4.5s1.1-.2,1.5-.6.6-1,.8-1.9v-.4c.1-.8.3-1.3.6-1.6s.7-.5,1.2-.5c.8,0,1.4.3,1.8.9.4.6.6,1.6.6,3.1v2.3c-.5,0-1,.2-1.5.2s-.9.2-1.3.2c-2.2.4-3.8,1-4.8,1.9-1,.9-1.5,1.5-1.5,2.9s.4,2.4,1.3,3.1c.9.7,2,1.1,3.1,1.1,1,0,1.9-.2,2.6-.7.7-.5,1.4-1.1,2.1-1.8.2.8.5,1.4,1.1,1.8.5.5,1.3.7,2.2.7s1.5,0,2-.4c.5-.3.9-.7,1.3-1.2ZM177.2,43.9c-.6.5-1.2.7-1.5,1-.3.3-.8.3-1.2.3h0c-.7-.1-1.2-.3-1.6-.7-.4-.4-.6-.9-.6-1.9s.3-1.8.9-2.4c.6-.6,1.4-1,2.3-1.2.6,0,1.1-.3,1.7-.3v5.2Z"/>
    <path class="st3" d="M192.5,47.1v-.8h-.5c-.4,0-.7-.3-.9-.6-.2-.3-.3-.7-.3-1.1,0,0,0-15.7.1-15.7v-4.6l-.4-.3-5.7,1.4v.8h.5c.5,0,.7.3.9.5s.2.5.2,1v16.8c0,.9-.4,1.4-1.1,1.8h-.5v.8h7.7Z"/>
    <path class="st3" d="M201.1,25.1v.7l.7.2c.4.2.6.3.8.6.2.3.2.6.2,1.1v16.6c0,.5,0,.8-.2,1.1-.2.3-.5.5-.9.6l-.6.2v.7h0c0-.1,8.6-.1,8.6-.1v-.7l-1-.2c-.8-.2-1.2-.8-1.2-1.7v-8h3.1c.5,0,.9,0,1.1.3.2.2.5.6.7,1l.7,1.2h.7v-6h-.7l-.7,1.2c-.2.4-.5.8-.7,1s-.6.3-1.1.3h-3.1v-9.1h5c.5,0,.8.1,1.1.3.2.3.5.6.7,1l1.7,3.2h.9l-.2-5.5h-15.7Z"/>
    <path class="st3" d="M233.6,45.5c-.2-.3-.2-.6-.2-1.1v-13.2l-.4-.4-5.5,1.1v.7h.4c.4.2.7.3.8.5,0,.1,0,.5,0,1v10.1c-.6.3-1.1.6-1.6.8-.5.3-1.1.3-1.7.3s-1.1-.2-1.5-.5c-.4-.3-.6-.9-.6-1.6v-7.4l.2-4.6-.4-.4-5.6,1.1v.7h.4c.4.1.6.3.8.5.1.2.1.5.1,1v8.2c0,1.2.2,2.2.6,2.9.5.8,1,1.3,1.7,1.6s1.4.5,2.3.5h.2c1,0,2-.2,2.9-.6.8-.4,1.7-1,2.4-1.6l.3,2.1,5.5-.3v-.8h-.4c-.4,0-.7-.3-.8-.6Z"/>
    <path class="st3" d="M251.9,44.6v-9.1c0-1.6-.4-2.8-1.2-3.6-.8-.8-1.9-1.2-3.3-1.2s-1.9.3-2.9.7c-.9.4-1.8,1-2.6,1.7l-.2-2-.4-.4-5.3,1.9v.7h.5c.5.1.8.3.9.5.2.3.2.6.2,1.1v9.7c0,.8-.4,1.4-1.1,1.7h-.5v.6h7.6v-.7h-.3c-.7-.2-1.1-.7-1.1-1.6v-10.5c1.1-.9,2.6-1.4,3.3-1.4s1.3.2,1.6.5c.3.4.5.9.5,1.7v9.7c0,.8-.4,1.3-1.1,1.7h-.5v.6h7.5v-.7h-.4c-.8-.2-1.2-.7-1.2-1.6Z"/>
    <path class="st3" d="M271.5,46c-.4,0-.6-.3-.8-.6-.2-.2-.2-.6-.2-1,0,0,0-15.7.1-15.7v-4.6l-.4-.3-5.7,1.4v.8h.7c.5,0,.8.3.9.5.2.2.2.5.2,1v4.3c-.5-.3-1.2-.6-1.9-.8-.8-.3-1-.3-2.3-.3s-2.5.3-3.6.9c-1.1.6-1.9,1.5-2.6,2.8-.7,1.3-1,2.9-1,4.7s.3,3.4.9,4.6c.6,1.2,1.4,2.1,2.4,2.7,1.1.6,2.2.9,3.5.9h0c.9,0,1.8-.2,2.5-.5s1.4-.6,2-1.1l.3,1.4,5.4-.4v-.7h-.4ZM266.2,44.9c-.9.6-1.8.9-2.7.9h.1c-1.2,0-2.1-.6-2.8-1.6-.7-1-1.1-2.7-1.1-5.2s.3-4.3,1.1-5.4c.8-1.1,1.9-1.7,2.8-1.7s1.8.3,2.6.8v12.2Z"/>
    <path class="st3" d="M87.2,56.7l-5.1,13h1.8l1.3-3.2h6.3l1.3,3.2h2l-5.2-13h-2.4ZM85.8,64.9l1.6-4.1c0-.2.2-.5.3-.8,0-.4.2-.7.3-1,0-.4.3-.6.3-.9h.1c0,.2.2.4.2.7.1.3.3.6.3.8,0,.3.2.5.2.7.2.2.2.4.2.5l1.6,4.1h-5.1Z"/>
    <path class="st3" d="M106.9,57.4c-1-.5-2.1-.7-3.5-.7h-4.9v13h4.9c1.4,0,2.5-.2,3.5-.7.9-.4,1.7-1.1,2.2-2.1s.8-2.2.8-3.7-.3-2.8-.8-3.7-1.2-1.6-2.2-2.1ZM107.9,63.3c0,.9-.1,1.6-.3,2.2-.2.6-.5,1.2-.9,1.5-.4.3-.9.6-1.5.8-.5.3-1.2.3-1.9.3h-3.1v-10h3c.8,0,1.4.2,2,.3.6,0,1.1.4,1.5.8s.7.9.9,1.5c.2.6.3,1.3.3,2.2v.4Z"/>
    <path class="st3" d="M119.2,65.9c0,.2-.2.3-.2.6s0,.4-.2.7c0,.3-.2.4-.2.6h0c0-.2-.2-.4-.2-.6s-.2-.5-.2-.7-.2-.4-.2-.6l-3.3-9.2h-2l4.9,13h2l4.9-13h-1.9l-3.3,9.2Z"/>
    <rect class="st3" x="128.3" y="56.7" width="1.8" height="13"/>
    <path class="st3" d="M144.1,63.5c-.4-.3-.9-.5-1.4-.7s-1.1-.4-1.6-.5c-.6,0-1.1-.3-1.6-.4-.5-.2-1-.3-1.4-.5-.4-.2-.8-.4-1-.7-.3-.3-.4-.7-.4-1s.2-.7.4-.9c.2-.2.6-.5,1.1-.6.5-.2,1.3-.2,1.9-.2s1.1,0,1.6.2.8.4,1.1.7c.3.3.4.7.4,1.1v.3h1.8v-.2c0-.7,0-1.2-.4-1.7-.3-.4-.6-.8-1.1-1.1s-1-.6-1.6-.7c-.6-.2-1.1-.2-1.9-.2s-1.6,0-2.2.2c-.6.2-1.2.4-1.6.7s-.8.7-1,1.1c-.2.5-.3.9-.3,1.5s0,1.1.4,1.5c.3.4.6.7,1,1,.4.3.9.5,1.4.7.5.2,1.1.4,1.6.5.6.1,1.1.2,1.6.4s1,.3,1.4.5c.4.2.8.4,1,.7.3.3.4.7.4,1.1s0,.7-.2.9l-.6.6c-.2.2-.5.4-.8.4-.3,0-.7.2-1,.2h-1c-.7,0-1.3-.1-1.8-.3-.6-.2-1-.4-1.3-.8-.3-.4-.5-.8-.5-1.3v-.4h-1.8v.2h0v.2c0,.7,0,1.3.4,1.8.3.5.7.9,1.2,1.2s1,.6,1.7.7c.6.2,1.3.2,2,.2h.1c1.1,0,2,0,2.8-.3.8-.3,1.4-.7,1.9-1.3.5-.6.7-1.4.7-2.3s-.2-1.1-.4-1.5c-.3-.4-.6-.7-1-1Z"/>
    <path class="st3" d="M159.3,57.2c-1-.5-2.1-.7-3.5-.7s-2.5.2-3.5.7c-.9.5-1.7,1.2-2.2,2.2s-.8,2.3-.8,3.8.3,2.8.8,3.8,1.2,1.7,2.2,2.2,2.1.7,3.5.7,2.6-.2,3.5-.7c.9-.5,1.7-1.2,2.2-2.2s.8-2.3.8-3.8-.3-2.8-.8-3.8-1.2-1.7-2.2-2.2ZM160.4,63.3c0,.8-.1,1.6-.3,2.2-.2.7-.5,1.2-.9,1.6-.4.4-.9.7-1.5.9-.5.3-1.2.3-1.9.3s-1.3,0-1.9-.3c-.6-.2-1.1-.5-1.5-.9-.4-.5-.7-1-.9-1.6s-.3-1.3-.3-2.2v-.4c0-.9,0-1.7.3-2.3.2-.7.5-1.2.9-1.6.4-.4.9-.7,1.5-.9.5-.3,1.2-.3,1.9-.3s1.3.1,1.9.3c.6.2,1.1.5,1.5.9.4.5.7,1,.9,1.6.2.7.3,1.4.3,2.3v.4Z"/>
    <path class="st3" d="M177,62.8c.4-.6.6-1.5.6-2.3s-.1-1.4-.4-2c-.3-.5-.7-1-1.3-1.3-.6-.3-1.3-.5-2.2-.5h-6.9v13h1.7v-5.2h5l2.5,5.2h2l-2.7-5.5c.7-.3,1.3-.8,1.7-1.4ZM173.5,63h-5v-4.8h4.9c.5,0,1,0,1.3.3.4.2.5.5.8.8s.3.5.3,1.2-.2,1.4-.6,1.8c-.4.5-1,.7-1.7.7Z"/>
    <path class="st3" d="M191.4,63.5c-.4-.3-.9-.5-1.4-.7s-1.1-.4-1.6-.5c-.6,0-1.1-.3-1.6-.4-.5-.2-1-.3-1.4-.5-.4-.2-.8-.4-1-.7-.3-.3-.4-.7-.4-1s.2-.7.4-.9.6-.5,1.1-.6c.5-.2,1.3-.2,1.9-.2s1.1,0,1.6.2.8.4,1.1.7.4.7.4,1.1v.3h1.8v-.2c0-.7,0-1.2-.4-1.7-.3-.4-.6-.8-1.1-1.1s-1-.6-1.6-.7c-.6-.2-1.1-.2-1.9-.2s-1.6,0-2.2.2c-.6.2-1.2.4-1.6.7-.4.3-.8.6-1,1.1s-.3.9-.3,1.5,0,1.1.4,1.5c.3.4.6.7,1,1,.4.3.9.5,1.4.7.5.2,1.1.4,1.6.5.6.1,1.1.3,1.6.4.5.2,1,.3,1.4.5.4.2.8.4,1,.7.3.3.4.7.4,1.1s0,.7-.2.9c-.2.2-.4.4-.6.6s-.5.4-.8.4c-.3,0-.7.2-1,.2h-1c-.7,0-1.3-.1-1.8-.3-.6-.2-1-.4-1.3-.8-.3-.4-.5-.8-.5-1.3v-.4h-1.8v.2h0v.2c0,.7.1,1.3.4,1.8s.7.9,1.2,1.2,1,.6,1.7.7c.6.2,1.3.2,2,.2h.1c1.1,0,2,0,2.8-.3.8-.3,1.4-.7,1.9-1.3.5-.6.7-1.4.7-2.3s-.2-1.1-.4-1.5c-.3-.4-.6-.7-1-1Z"/>
  </g>
</svg>