<svg width="272" height="82" viewBox="0 0 272 82" fill="none" xmlns="http://www.w3.org/2000/svg">
<g clip-path="url(#clip0_2114_27373)">
<path d="M63.1 20.3C52 10.3 37.2 16.1 27.5 21.9C27.5 21.9 27.5 21.9 27.3 21.9C26.2 22.6 26.9 24.2 28.2 23.9C36 21.9 44.3 22 49.2 28.8C54.2 35.6 56.1 49.2 41 65.8C39.6 67.4 38 69 36.2 70.6C33.7 72.9 30.9 75.3 27.7 77.7C25.4 79.5 27.6 83.1 30.2 81.8C74.1 60.2 73.2 29.6 62.9 20.2L63.1 20.3Z" fill="url(#paint0_linear_2114_27373)"/>
<path d="M33 67.8C12.2 58.7 10 46.7 12.4 40.2C14.4 34.7 20.1 33 25.7 32.9C26.6 32.9 26.8 31.6 25.9 31.4C25.9 31.4 25.9 31.4 25.8 31.4C18.1 29.3 6.9 28.2 1.3 37.1C-3.6 44.9 0.800003 63.9 29.5 71.3C30.7 70.1 31.9 69 32.9 67.9L33 67.8Z" fill="url(#paint1_linear_2114_27373)"/>
<path d="M69.2 13.1C72.6794 13.1 75.5 10.2794 75.5 6.8C75.5 3.32061 72.6794 0.5 69.2 0.5C65.7206 0.5 62.9 3.32061 62.9 6.8C62.9 10.2794 65.7206 13.1 69.2 13.1Z" fill="url(#paint2_linear_2114_27373)"/>
<path d="M82.7 46.9V46.2L83.4 46C83.8 45.9 84.1 45.7 84.3 45.4C84.5 45.1 84.5 44.7 84.5 44.2V28C84.5 27.6 84.5 27.2 84.3 26.9C84.2 26.6 83.9 26.4 83.5 26.3L82.7 26V25.3H89L95.2 41.3L101 25.3H107.4V26L106.9 26.2C106.5 26.3 106.2 26.5 106 26.8C105.8 27.1 105.8 27.4 105.8 27.9C105.8 29.2 105.8 30.4 105.8 31.7V40.7C105.8 42 105.8 43.2 105.8 44.5C105.8 45 105.8 45.3 106 45.5C106.1 45.7 106.4 45.9 106.8 46.1L107.5 46.3V47H99.5V46.3L100.2 46.1C100.6 45.9 100.9 45.7 101 45.5C101.1 45.3 101.1 44.9 101.1 44.5V28.6L94.5 47.1H92.7L85.7 28.8V36.3C85.8 36.3 85.8 44.4 85.8 44.4C85.8 44.9 85.8 45.3 86 45.5C86.1 45.8 86.4 46 86.8 46.1L87.5 46.3V47H82.9L82.7 46.9Z" fill="#F2F1EE"/>
<path d="M116.1 30.7C117.5 30.7 118.7 31 119.6 31.6C120.6 32.2 121.3 32.9 121.9 33.9C122.4 34.9 122.7 36 122.7 37.3C122.7 38.6 122.7 37.9 122.7 38.1C122.7 38.4 122.7 38.6 122.6 38.8H112.7C112.7 41 113.1 42.7 114 43.6C114.9 44.5 116 45.1 117.6 45.1C119.2 45.1 119.6 44.9 120.3 44.6C121 44.2 121.6 43.7 122.2 43.1L122.7 43.6C122 44.8 121.2 45.7 120 46.4C118.9 47.1 117.5 47.4 116 47.4C114.5 47.4 113.1 47.1 111.9 46.4C110.7 45.7 109.8 44.8 109.1 43.6C108.4 42.4 108.1 40.9 108.1 39.2C108.1 37.5 108.5 35.9 109.3 34.6C110.1 33.4 111.1 32.4 112.3 31.7C113.5 31 114.8 30.7 116.2 30.7H116.1ZM115.9 31.6C115.3 31.6 114.7 31.8 114.2 32.1C113.7 32.5 113.4 33.1 113.1 34C112.8 34.9 112.7 36.2 112.6 37.8H118.5C118.7 35.6 118.7 34 118.2 33C117.8 32 117 31.5 115.8 31.5L115.9 31.6Z" fill="#F2F1EE"/>
<path d="M131.2 47.3C129.9 47.3 128.8 47 127.7 46.4C126.6 45.8 125.9 44.9 125.3 43.7C124.7 42.5 124.4 40.9 124.4 39.1C124.4 37.3 124.7 35.7 125.4 34.4C126.1 33.1 126.9 32.2 128 31.6C129.1 31 130.3 30.7 131.6 30.7C132.9 30.7 133.1 30.7 133.9 31C134.7 31.3 135.3 31.5 135.8 31.8V27.5C135.8 27 135.8 26.7 135.6 26.5C135.4 26.3 135.2 26.1 134.7 26H134V25.2L139.7 23.8L140.1 24.1V28.7C140 28.7 140 44.4 140 44.4C140 44.8 140 45.2 140.2 45.4C140.4 45.7 140.6 45.9 141 46H141.4V46.7L136 47.1L135.7 45.7C135.1 46.2 134.4 46.5 133.7 46.8C132.9 47.1 132.1 47.2 131.2 47.2V47.3ZM133 45.8C133.9 45.8 134.8 45.5 135.7 44.9V32.7C134.9 32.2 134 31.9 133.1 31.9C132.2 31.9 131.1 32.5 130.3 33.6C129.5 34.7 129.2 36.5 129.2 39C129.2 41.5 129.6 43.2 130.3 44.2C131 45.2 131.9 45.7 133.1 45.7L133 45.8Z" fill="#F2F1EE"/>
<path d="M143 46.9V46.3H143.5C143.9 46 144.2 45.8 144.4 45.6C144.6 45.3 144.6 45 144.7 44.6V36.7C144.7 36.1 144.7 35.5 144.7 34.9C144.7 34.5 144.7 34.1 144.5 33.9C144.3 33.6 144 33.5 143.6 33.4H143.1V32.7L148.8 30.8L149.2 31.2V35.8V44.6C149.2 45 149.2 45.4 149.4 45.6C149.6 45.9 149.9 46.1 150.3 46.2H150.7V46.9H143.2H143ZM146.8 28.9C146.1 28.9 145.5 28.7 145 28.2C144.5 27.7 144.2 27.2 144.2 26.5C144.2 25.8 144.5 25.2 145 24.7C145.5 24.3 146.1 24 146.8 24C147.5 24 148.1 24.2 148.6 24.7C149.1 25.1 149.4 25.7 149.4 26.5C149.4 27.3 149.1 27.8 148.6 28.2C148.1 28.7 147.5 28.9 146.8 28.9Z" fill="#F2F1EE"/>
<path d="M160 47.3C158.5 47.3 157.2 47 156 46.3C154.8 45.6 153.9 44.7 153.2 43.5C152.5 42.3 152.2 40.8 152.2 39C152.2 37.2 152.6 35.7 153.3 34.5C154.1 33.3 155.1 32.3 156.4 31.6C157.7 30.9 159.1 30.6 160.6 30.6C162.1 30.6 162.9 30.8 163.8 31.2C164.7 31.6 165.3 32.1 165.8 32.8C166.3 33.4 166.5 34.1 166.5 34.8C166.5 35.5 166.3 35.9 166 36.2C165.6 36.5 165.2 36.7 164.6 36.7C164 36.7 163.5 36.5 163.1 36C162.7 35.5 162.5 35 162.4 34.3C162.4 33.9 162.4 33.5 162.4 33.2C162.4 32.9 162.4 32.6 162.4 32.3C162.4 31.9 162.2 31.7 162 31.5C161.8 31.3 161.5 31.3 161.1 31.3C159.7 31.3 158.7 31.9 157.9 33C157.2 34.1 156.8 35.9 156.8 38.4C156.8 40.9 157.2 42.1 158 43.3C158.8 44.5 160.1 45 161.8 45C163.5 45 163.6 44.8 164.3 44.4C165 44 165.6 43.5 166.1 42.7L166.6 43.1C166.1 44.4 165.2 45.4 164.1 46.1C163 46.8 161.6 47.1 160.1 47.1L160 47.3Z" fill="#F2F1EE"/>
<path d="M172.6 47.3C171.4 47.3 170.3 46.9 169.4 46.2C168.5 45.5 168.1 44.5 168.1 43.1C168.1 41.7 168.6 41.1 169.6 40.2C170.6 39.3 172.2 38.7 174.4 38.3C174.8 38.3 175.2 38.1 175.7 38.1C176.2 38.1 176.7 37.9 177.2 37.9V35.6C177.2 34.1 177 33.1 176.6 32.5C176.2 31.9 175.6 31.6 174.8 31.6C174.3 31.6 173.9 31.8 173.6 32.1C173.3 32.4 173.1 32.9 173 33.7V34.1C172.8 35 172.6 35.6 172.2 36C171.8 36.4 171.3 36.6 170.7 36.6C170.1 36.6 169.7 36.4 169.3 36.1C168.9 35.8 168.8 35.3 168.8 34.8C168.8 33.9 169.1 33.2 169.7 32.5C170.3 31.9 171.1 31.4 172.1 31.1C173.1 30.8 174.2 30.6 175.4 30.6C177.3 30.6 178.8 31.1 179.9 32C180.9 32.9 181.4 34.5 181.4 36.6V43.9C181.4 44.8 181.8 45.3 182.7 45.3H183.5L183.8 45.7C183.4 46.2 183 46.6 182.5 46.9C182 47.2 181.4 47.3 180.5 47.3C179.6 47.3 178.8 47.1 178.3 46.6C177.7 46.2 177.4 45.6 177.2 44.8C176.5 45.5 175.8 46.1 175.1 46.6C174.4 47.1 173.5 47.3 172.4 47.3H172.6ZM174.5 45.2C174.9 45.2 175.4 45.2 175.7 44.9C176 44.6 176.6 44.4 177.2 43.9V38.7C176.6 38.7 176.1 38.9 175.5 39C174.6 39.2 173.8 39.6 173.2 40.2C172.6 40.8 172.3 41.6 172.3 42.6C172.3 43.6 172.5 44.1 172.9 44.5C173.3 44.9 173.8 45.1 174.5 45.1V45.2Z" fill="#F2F1EE"/>
<path d="M184.8 46.9V46.3H185.3C186 45.9 186.4 45.4 186.4 44.5C186.4 43.6 186.4 43 186.4 42.3C186.4 41.6 186.4 40.8 186.4 40.1V27.7C186.4 27.2 186.4 26.9 186.2 26.7C186 26.5 185.8 26.3 185.3 26.2H184.8V25.4L190.5 24L190.9 24.3V28.9C190.8 28.9 190.8 44.6 190.8 44.6C190.8 45 190.9 45.4 191.1 45.7C191.3 46 191.6 46.2 192 46.3H192.5V47.1H184.9L184.8 46.9Z" fill="#F2F1EE"/>
<path d="M201.1 46.9V46.2L201.7 46C202.1 45.9 202.4 45.7 202.6 45.4C202.7 45.1 202.8 44.8 202.8 44.3C202.8 43.1 202.8 41.8 202.8 40.5V31.5C202.8 30.2 202.8 29 202.8 27.7C202.8 27.2 202.8 26.9 202.6 26.6C202.4 26.3 202.2 26.2 201.8 26L201.1 25.8V25.1H216.8L217 30.6H216.1L214.4 27.4C214.2 27 213.9 26.7 213.7 26.4C213.4 26.2 213.1 26.1 212.6 26.1H207.6C207.6 27.6 207.6 29.1 207.6 30.6C207.6 32.1 207.6 33.7 207.6 35.2H210.7C211.2 35.2 211.6 35.1 211.8 34.9C212 34.7 212.3 34.3 212.5 33.9L213.2 32.7H213.9V38.7H213.2L212.5 37.5C212.3 37.1 212 36.7 211.8 36.5C211.6 36.3 211.2 36.2 210.7 36.2H207.6V40.3C207.6 41.6 207.6 42.9 207.6 44.2C207.6 45.1 208 45.7 208.8 45.9L209.8 46.1V46.8H201.2L201.1 46.9Z" fill="#F2F1EE"/>
<path d="M223.5 47.3C222.6 47.3 221.9 47.1 221.2 46.8C220.5 46.5 220 46 219.5 45.2C219.1 44.5 218.9 43.5 218.9 42.3V34.1C218.9 33.6 218.9 33.3 218.8 33.1C218.6 32.9 218.4 32.7 218 32.6H217.6V31.9L223.2 30.8L223.6 31.2L223.4 35.8V43.2C223.4 43.9 223.6 44.5 224 44.8C224.4 45.1 224.9 45.3 225.5 45.3C226.1 45.3 226.7 45.3 227.2 45C227.7 44.8 228.2 44.5 228.8 44.2V34.1C228.8 33.6 228.8 33.2 228.7 33.1C228.6 32.9 228.3 32.8 227.9 32.6H227.5V31.9L233 30.8L233.4 31.2V35.8V44.4C233.4 44.9 233.4 45.2 233.6 45.5C233.7 45.8 234 46 234.4 46.1H234.8V46.9L229.3 47.2L229 45.1C228.3 45.7 227.4 46.3 226.6 46.7C225.7 47.1 224.7 47.3 223.7 47.3H223.5Z" fill="#F2F1EE"/>
<path d="M236 46.9V46.3H236.5C237.2 46 237.6 45.4 237.6 44.6V34.9C237.6 34.4 237.6 34.1 237.4 33.8C237.3 33.6 237 33.4 236.5 33.3H236V32.6L241.3 30.7L241.7 31.1L241.9 33.1C242.7 32.4 243.6 31.8 244.5 31.4C245.5 31 246.4 30.7 247.4 30.7C248.8 30.7 249.9 31.1 250.7 31.9C251.5 32.7 251.9 33.9 251.9 35.5V44.6C251.9 45.5 252.3 46 253.1 46.2H253.5V46.9H246V46.3H246.5C247.2 45.9 247.6 45.4 247.6 44.6V34.9C247.6 34.1 247.4 33.6 247.1 33.2C246.8 32.9 246.2 32.7 245.5 32.7C244.8 32.7 243.3 33.2 242.2 34.1V44.6C242.2 45.5 242.6 46 243.3 46.2H243.6V46.9H236.1H236Z" fill="#F2F1EE"/>
<path d="M261.7 47.3C260.4 47.3 259.3 47 258.2 46.4C257.2 45.8 256.4 44.9 255.8 43.7C255.2 42.5 254.9 40.9 254.9 39.1C254.9 37.3 255.2 35.7 255.9 34.4C256.6 33.1 257.4 32.2 258.5 31.6C259.6 31 260.8 30.7 262.1 30.7C263.4 30.7 263.6 30.7 264.4 31C265.1 31.2 265.8 31.5 266.3 31.8V27.5C266.3 27 266.3 26.7 266.1 26.5C266 26.3 265.7 26.1 265.2 26H264.5V25.2L270.2 23.8L270.6 24.1V28.7C270.5 28.7 270.5 44.4 270.5 44.4C270.5 44.8 270.5 45.2 270.7 45.4C270.9 45.7 271.1 45.9 271.5 46H271.9V46.7L266.5 47.1L266.2 45.7C265.6 46.2 264.9 46.5 264.2 46.8C263.5 47.1 262.6 47.2 261.7 47.2V47.3ZM263.5 45.8C264.4 45.8 265.3 45.5 266.2 44.9V32.7C265.4 32.2 264.5 31.9 263.6 31.9C262.7 31.9 261.6 32.5 260.8 33.6C260 34.7 259.7 36.5 259.7 39C259.7 41.5 260.1 43.2 260.8 44.2C261.5 45.2 262.4 45.7 263.6 45.7L263.5 45.8Z" fill="#F2F1EE"/>
<path d="M82.1 69.7L87.2 56.7H89.6L94.8 69.7H92.8L91.5 66.5H85.2L83.9 69.7H82H82.1ZM85.8 64.9H90.9L89.3 60.8C89.3 60.7 89.3 60.5 89.1 60.3C89.1 60.1 88.9 59.9 88.9 59.6C88.9 59.4 88.7 59.1 88.6 58.8C88.6 58.5 88.4 58.3 88.4 58.1H88.3C88.3 58.4 88.1 58.6 88 59C87.9 59.3 87.8 59.6 87.7 60C87.6 60.3 87.5 60.6 87.4 60.8L85.8 64.9Z" fill="#F2F1EE"/>
<path d="M98.5 69.7V56.7H103.4C104.8 56.7 105.9 56.9 106.9 57.4C107.9 57.9 108.6 58.6 109.1 59.5C109.6 60.4 109.9 61.7 109.9 63.2C109.9 64.7 109.6 65.9 109.1 66.9C108.6 67.9 107.8 68.6 106.9 69C105.9 69.5 104.8 69.7 103.4 69.7H98.5ZM100.3 68.1H103.3C104 68.1 104.7 68.1 105.2 67.8C105.8 67.6 106.3 67.3 106.7 67C107.1 66.7 107.4 66.1 107.6 65.5C107.8 64.9 107.9 64.2 107.9 63.3V62.9C107.9 62 107.8 61.3 107.6 60.7C107.4 60.1 107.1 59.6 106.7 59.2C106.3 58.8 105.8 58.5 105.2 58.4C104.6 58.3 104 58.1 103.2 58.1H100.2V68L100.3 68.1Z" fill="#F2F1EE"/>
<path d="M117.5 69.7L112.6 56.7H114.6L117.9 65.9C117.9 66.1 118.1 66.3 118.1 66.5C118.1 66.7 118.3 67 118.3 67.2C118.3 67.4 118.4 67.6 118.5 67.8H118.6C118.6 67.6 118.7 67.5 118.8 67.2C118.9 66.9 119 66.8 119 66.5C119 66.2 119.2 66.1 119.2 65.9L122.5 56.7H124.4L119.5 69.7H117.3H117.5Z" fill="#F2F1EE"/>
<path d="M128.3 69.7V56.7H130.1V69.7H128.3Z" fill="#F2F1EE"/>
<path d="M140 69.9C139.3 69.9 138.6 69.9 138 69.7C137.3 69.6 136.8 69.3 136.3 69C135.8 68.7 135.4 68.3 135.1 67.8C134.8 67.3 134.7 66.7 134.7 66C134.7 65.3 134.7 65.9 134.7 65.8C134.7 65.7 134.7 65.7 134.7 65.6H136.5C136.5 65.6 136.5 65.6 136.5 65.8V66C136.5 66.5 136.7 66.9 137 67.3C137.3 67.7 137.7 67.9 138.3 68.1C138.8 68.3 139.4 68.4 140.1 68.4C140.8 68.4 140.7 68.4 141.1 68.4C141.4 68.4 141.8 68.3 142.1 68.2C142.4 68.2 142.7 68 142.9 67.8C143.1 67.6 143.3 67.4 143.5 67.2C143.7 67 143.7 66.7 143.7 66.3C143.7 65.9 143.6 65.5 143.3 65.2C143.1 64.9 142.7 64.7 142.3 64.5C141.9 64.3 141.4 64.2 140.9 64C140.4 63.8 139.9 63.7 139.3 63.6C138.8 63.5 138.2 63.3 137.7 63.1C137.2 62.9 136.7 62.7 136.3 62.4C135.9 62.1 135.6 61.8 135.3 61.4C135 61 134.9 60.5 134.9 59.9C134.9 59.3 135 58.9 135.2 58.4C135.4 58 135.8 57.6 136.2 57.3C136.6 57 137.2 56.8 137.8 56.6C138.4 56.4 139.2 56.4 140 56.4C140.8 56.4 141.3 56.4 141.9 56.6C142.5 56.7 143 57 143.5 57.3C144 57.6 144.3 58 144.6 58.4C144.9 58.9 145 59.4 145 60.1V60.3H143.2V60C143.2 59.6 143.1 59.2 142.8 58.9C142.5 58.6 142.2 58.4 141.7 58.2C141.2 58 140.7 58 140.1 58C139.5 58 138.7 58 138.2 58.2C137.7 58.3 137.3 58.6 137.1 58.8C136.9 59 136.7 59.4 136.7 59.7C136.7 60 136.8 60.4 137.1 60.7C137.3 61 137.7 61.2 138.1 61.4C138.5 61.6 139 61.7 139.5 61.9C140 62 140.5 62.2 141.1 62.3C141.6 62.4 142.2 62.6 142.7 62.8C143.2 63 143.7 63.2 144.1 63.5C144.5 63.8 144.8 64.1 145.1 64.5C145.3 64.9 145.5 65.4 145.5 66C145.5 66.9 145.3 67.7 144.8 68.3C144.3 68.9 143.7 69.3 142.9 69.6C142.1 69.9 141.2 70 140.1 70L140 69.9Z" fill="#F2F1EE"/>
<path d="M155.8 69.9C154.4 69.9 153.3 69.7 152.3 69.2C151.3 68.7 150.6 68 150.1 67C149.6 66 149.3 64.7 149.3 63.2C149.3 61.7 149.6 60.4 150.1 59.4C150.6 58.4 151.4 57.7 152.3 57.2C153.3 56.7 154.4 56.5 155.8 56.5C157.2 56.5 158.3 56.7 159.3 57.2C160.3 57.7 161 58.4 161.5 59.4C162 60.4 162.3 61.7 162.3 63.2C162.3 64.7 162 66 161.5 67C161 68 160.2 68.7 159.3 69.2C158.4 69.7 157.2 69.9 155.8 69.9ZM155.8 68.3C156.5 68.3 157.2 68.3 157.7 68C158.3 67.8 158.8 67.5 159.2 67.1C159.6 66.7 159.9 66.2 160.1 65.5C160.3 64.9 160.4 64.1 160.4 63.3V62.9C160.4 62 160.3 61.3 160.1 60.6C159.9 60 159.6 59.5 159.2 59C158.8 58.6 158.3 58.3 157.7 58.1C157.1 57.9 156.5 57.8 155.8 57.8C155.1 57.8 154.4 57.8 153.9 58.1C153.3 58.3 152.8 58.6 152.4 59C152 59.4 151.7 59.9 151.5 60.6C151.3 61.2 151.2 62 151.2 62.9V63.3C151.2 64.2 151.3 64.9 151.5 65.5C151.7 66.1 152 66.6 152.4 67.1C152.8 67.5 153.3 67.8 153.9 68C154.5 68.2 155.1 68.3 155.8 68.3Z" fill="#F2F1EE"/>
<path d="M166.8 69.7V56.7H173.7C174.6 56.7 175.3 56.9 175.9 57.2C176.5 57.5 176.9 58 177.2 58.5C177.5 59.1 177.6 59.7 177.6 60.5C177.6 61.3 177.4 62.2 177 62.8C176.6 63.4 176 63.9 175.3 64.2L178 69.7H176L173.5 64.5H168.5V69.7H166.7H166.8ZM168.6 63H173.5C174.2 63 174.8 62.8 175.2 62.3C175.6 61.9 175.8 61.2 175.8 60.5C175.8 59.8 175.8 59.6 175.5 59.3C175.2 59 175.1 58.7 174.7 58.5C174.4 58.3 173.9 58.2 173.4 58.2H168.5V63H168.6Z" fill="#F2F1EE"/>
<path d="M187.3 69.9C186.6 69.9 185.9 69.9 185.3 69.7C184.6 69.6 184.1 69.3 183.6 69C183.1 68.7 182.7 68.3 182.4 67.8C182.1 67.3 182 66.7 182 66C182 65.3 182 65.9 182 65.8C182 65.8 182 65.7 182 65.6H183.8C183.8 65.6 183.8 65.6 183.8 65.8V66C183.8 66.5 184 66.9 184.3 67.3C184.6 67.7 185 67.9 185.6 68.1C186.1 68.3 186.7 68.4 187.4 68.4C188.1 68.4 188 68.4 188.4 68.4C188.7 68.4 189.1 68.3 189.4 68.2C189.7 68.2 190 68 190.2 67.8C190.4 67.6 190.6 67.4 190.8 67.2C191 67 191 66.7 191 66.3C191 65.9 190.9 65.5 190.6 65.2C190.4 64.9 190 64.7 189.6 64.5C189.2 64.3 188.7 64.2 188.2 64C187.7 63.9 187.2 63.7 186.6 63.6C186.1 63.5 185.5 63.3 185 63.1C184.5 62.9 184 62.7 183.6 62.4C183.2 62.1 182.9 61.8 182.6 61.4C182.3 61 182.2 60.5 182.2 59.9C182.2 59.3 182.3 58.9 182.5 58.4C182.7 57.9 183.1 57.6 183.5 57.3C183.9 57 184.5 56.8 185.1 56.6C185.7 56.4 186.5 56.4 187.3 56.4C188.1 56.4 188.6 56.4 189.2 56.6C189.8 56.7 190.3 57 190.8 57.3C191.3 57.6 191.6 58 191.9 58.4C192.2 58.9 192.3 59.4 192.3 60.1V60.3H190.5V60C190.5 59.6 190.4 59.2 190.1 58.9C189.8 58.6 189.5 58.4 189 58.2C188.5 58 188 58 187.4 58C186.8 58 186 58 185.5 58.2C185 58.3 184.6 58.6 184.4 58.8C184.2 59 184 59.4 184 59.7C184 60 184.1 60.4 184.4 60.7C184.6 61 185 61.2 185.4 61.4C185.8 61.6 186.3 61.7 186.8 61.9C187.3 62 187.8 62.2 188.4 62.3C188.9 62.4 189.5 62.6 190 62.8C190.5 63 191 63.2 191.4 63.5C191.8 63.8 192.1 64.1 192.4 64.5C192.6 64.9 192.8 65.4 192.8 66C192.8 66.9 192.6 67.7 192.1 68.3C191.6 68.9 191 69.3 190.2 69.6C189.4 69.9 188.5 70 187.4 70L187.3 69.9Z" fill="#F2F1EE"/>
</g>
<defs>
<linearGradient id="paint0_linear_2114_27373" x1="26.8" y1="48.5" x2="69" y2="48.5" gradientUnits="userSpaceOnUse">
<stop stop-color="#C8C5A5"/>
<stop offset="1" stop-color="#A69E3F"/>
</linearGradient>
<linearGradient id="paint1_linear_2114_27373" x1="-0.299997" y1="50.5" x2="33" y2="50.5" gradientUnits="userSpaceOnUse">
<stop stop-color="#C8C5A5"/>
<stop offset="1" stop-color="#A69E3F"/>
</linearGradient>
<linearGradient id="paint2_linear_2114_27373" x1="62.9" y1="6.8" x2="75.6" y2="6.8" gradientUnits="userSpaceOnUse">
<stop stop-color="#C8C5A5"/>
<stop offset="1" stop-color="#A69E3F"/>
</linearGradient>
<clipPath id="clip0_2114_27373">
<rect width="272" height="82" fill="white"/>
</clipPath>
</defs>
</svg>
